<?xml version="1.0" encoding="utf-8"?>
<!-- Generator: Adobe Illustrator 26.0.3, SVG Export Plug-In . SVG Version: 6.00 Build 0)  -->
<svg version="1.1" xmlns="http://www.w3.org/2000/svg" xmlns:xlink="http://www.w3.org/1999/xlink" x="0px" y="0px"
	 viewBox="0 0 400 400" style="enable-background:new 0 0 400 400;" xml:space="preserve">
<style type="text/css">
	.st0{fill:#4D4D4D;}
	.st1{fill:#FFFF00;}
	.st2{fill:#FF0000;}
	.st3{fill:#C10808;}
	.st4{fill:#FBB03B;}
	.st5{opacity:0.7;}
	.st6{clip-path:url(#SVGID_00000089550895964659254630000006666903792466404993_);enable-background:new    ;}
	.st7{fill:#FFFFFF;}
	.st8{filter:url(#Adobe_OpacityMaskFilter);}
	.st9{opacity:0.75;mask:url(#SVGID_00000119087967071016765080000004271438064129199267_);}
	.st10{fill:#FFBB43;}
	.st11{fill:#C7CC00;}
	.st12{fill:#FFFF5A;}
	.st13{opacity:0.3;}
	.st14{fill:#B3B3B3;}
	.st15{fill:#303030;}
	.st16{fill:#666666;}
	.st17{fill:#969696;}
	.st18{fill:#C9C9C9;}
	.st19{fill:#E3E3E3;}
	.st20{fill:#4C4C4C;}
	.st21{opacity:0.3;fill:#FFFF00;}
	.st22{fill:none;stroke:#231F20;stroke-miterlimit:10;}
	.st23{fill:none;stroke:#C6C6C6;stroke-miterlimit:10;}
	.st24{fill:none;stroke:#000000;}
	.st25{fill:none;stroke:#1D1D1B;stroke-width:0.5;stroke-linecap:round;stroke-linejoin:round;}
	.st26{fill:none;stroke:#1D1D1B;stroke-width:0.5;stroke-linecap:round;stroke-linejoin:round;stroke-dasharray:1.9974,1.9974;}
	.st27{filter:url(#Adobe_OpacityMaskFilter_00000085965084559105470660000004185897271706361987_);}
	.st28{opacity:0.75;mask:url(#SVGID_00000124877473214648811440000006900673237656580277_);}
	.st29{fill:none;stroke:#808080;stroke-width:0.5608;stroke-miterlimit:10;}
	.st30{fill:none;stroke:#FCEE21;stroke-width:0.5608;stroke-miterlimit:10;}
	.st31{fill-rule:evenodd;clip-rule:evenodd;fill:#FFFF00;}
	.st32{fill-rule:evenodd;clip-rule:evenodd;}
</style>
<g id="Capa_1">
</g>
<g id="Capa_5">
</g>
<g id="Capa_2">
</g>
<g id="Capa_4">
</g>
<g id="Capa_3">
	<g>
		<path class="st1" d="M353.7,203.6C353.7,111,280.1,36,189.3,36C123.7,36,67,75.2,40.6,131.9C58.5,94,90.6,63.1,132.7,48.1
			c55.9-19.9,115.7-7,159,28.8c-0.8-0.5-2.2-1.4-2-1.2c-1.5-1.1-2.8-1.9-4-2.7c-0.3-0.2-0.6-0.4-0.9-0.5c-0.3-0.2-0.6-0.3-0.8-0.5
			c-0.5-0.3-1-0.5-1.5-0.8c-1.6-1.2-2.6-1.6-3.6-2.1c-1-0.5-2.1-0.9-4.1-2.3l0.1-0.2c-1.1-0.7-2.1-1.3-3-2c-0.2-0.2-0.5-0.3-0.7-0.5
			c-0.2-0.2-0.5-0.3-0.7-0.5c-0.5-0.3-0.9-0.6-1.4-0.9c-0.9-0.6-1.9-1.2-2.9-1.9c-0.5-0.3-1.1-0.7-1.7-1c-0.6-0.3-1.3-0.6-2-0.9
			c1.3,1,5.3,3.4,5.2,4.1c-0.5-0.3-1.3-0.8-1.4-0.7c-0.4,0,1.1,0.7,1.3,1c-0.2,0.1-1-0.4-1.4-0.7c1.1,1.2-2.7-1-2.2,0
			c-0.6-0.4-1.3-0.7-1.7-1c-0.5-0.2-0.8-0.3-0.8-0.2c-1.6-0.9-3.4-1.9-3.6-1.6c-0.5-0.3-1-0.5-1.4-0.8c-0.4-0.2-0.8-0.4-1.1-0.7
			c-0.7-0.4-1.2-0.8-1.7-1.2c-1.1-0.8-2.1-1.5-4.1-2.3c-0.5-0.3-0.6-0.5-1.4-0.9c0.3,0.1,0.7,0.2,1.1,0.3c-0.8-0.8-5.3-2.4-6.1-3.2
			c-2.6-0.8-4.7-1.4-7.2-2.4c-0.9,0,2.5,0.9,1.1,0.7c0.3,0.1,0.9,0.2,1.5,0.5c0.5,0.3,0.1,0.3,1.1,0.7c-0.1,0.1-1.3-0.4-1.5-0.5
			c-0.2,0.1,0.8,0.6-0.1,0.4c2.1,0.8,1.6,0.3,3.1,0.7c1,0.5-1.2,0.1,1.4,0.9c0.1,0.2-0.6-0.1-1.2-0.3c0.2,0.1,0.4,0.2,0.3,0.3
			c0.8,0.1,0.3,0,1.5,0.5c-0.2,0.1,0.2,0.3,0.3,0.4c-1-0.2,0.2,0.7,2.1,1.3c-1.2-0.2,0.7,0.7,1.7,1.3c-0.2,0-0.6-0.1-1.1-0.4
			c0.4,0.7,2.6,1.6,5.2,2.9c1.3,0.6,2.8,1.3,4.3,2c1.5,0.7,2.9,1.5,4.3,2.2c0.1,0,0-0.1-0.3-0.3c0.4,0.2,1.1,0.6,1.9,1
			c0.4,0.2,0.8,0.4,1.2,0.6c0.4,0.2,0.7,0.5,1.1,0.7c0.4,0.2,0.3,0.1,0.4,0c1.7,0.9,3.3,1.8,4.8,2.6c1.5,0.9,2.9,1.8,4.4,2.6
			c0.7,0.4,1.5,0.9,2.2,1.3c0.4,0.2,0.7,0.5,1.1,0.7c0.4,0.3,0.7,0.5,1.1,0.8c1.5,1,3.1,2.1,4.8,3.4c0.4,0.3,0.3,0.1,0.4,0.1
			c1.2,0.9,2.3,1.8,3.4,2.5c0.5,0.4,1,0.7,1.5,1.1c0.5,0.4,1,0.7,1.5,1.1c0.9,0.7,1.9,1.5,2.9,2.3c0.5,0.4,1,0.8,1.5,1.3
			c0.5,0.5,1.1,0.9,1.6,1.5c0.1-0.1-0.3-0.6-0.7-1c0.4,0.1,1.9,1.8,1.9,1.4c0.8,0.9,1.4,1.6,2.8,2.8c0.1-0.1-0.1-0.3-0.5-0.7
			c0.3,0.3,0.7,0.7,1.2,1.2c0.2,0.2,0.5,0.5,0.8,0.8c0.3,0.3,0.5,0.6,0.8,0.9c1.1,1.2,2.4,2.6,3.6,4c0.3,0.3,0.6,0.7,0.9,1
			c0.3,0.4,0.6,0.7,0.8,1.1c0.5,0.7,1.1,1.4,1.5,2c0.9,1.2,1.6,2.3,1.8,2.9c0.2,0.2,0.4,0.4,0.6,0.6c0.2,0.2,0.3,0.3,0.5,0.5
			c0.3,0.3,0.6,0.6,0.8,0.8c0.5,0.5,0.9,0.8,1.3,1.1c0.8,0.6,1.6,1.2,2.9,2.6c1.3,2,1,2.5,2.1,4.4c-0.9-1-0.8-0.2,0,1
			c-0.8-0.9-2-2.5-3.2-4.1c-1.3-1.6-2.6-3.2-3.7-4.5c-0.4,0.5,2.9,4.4,1.5,3.9c-0.5-0.6-1.1-1.2-1.4-1.3c0.2,0.4,0.6,0.9,0.5,1.1
			c-0.4-0.2-1.4-1.3-1.6-1.2c-0.7-1-1.3-1.7-1.9-2.2c-0.5-0.6-1-0.9-1.4-1.4c-0.9-0.8-1.8-1.6-3.4-3.4c-1.1-0.1,1,3,1.3,4.2
			c0.8,1,0.3,0.1,1.1,1.1c0.3,0.5,0.5,0.9,0.8,1.3c0.2,0.4,0.4,0.7,0.5,1c0.2,0.5,0.2,0.8-0.1,0.8c0.7,1.1,1.6,2.4,2.5,3.6
			c0.4,0.6,0.8,1.2,1.1,1.8c0.3,0.5,0.6,1,0.7,1.4c-0.6-0.9-1.2-1.8-1.8-2.7c-0.6-0.8-1.2-1.7-1.8-2.4c-0.6-0.8-1.1-1.6-1.7-2.3
			c-0.3-0.4-0.5-0.7-0.8-1.1c-0.3-0.3-0.5-0.7-0.8-1c-0.6-0.8-0.6-0.5-1.1-1.1c0,0.4,0.1,0.6-0.7-0.3c-0.2,0.1,1.6,2.2,0.4,1.2
			c1.1,1.2,1.4,1.6,1.6,2.1c0.9,1.1,1.4,1.5,2.2,2.5c0,0.2-0.3-0.1-0.4-0.1c0.4,0.7,0.9,1.4,1.3,2.1c0.4,0.7,0.9,1.4,1.2,2.1
			c0.7,1.4,1.4,2.7,1.9,3.9c0.6,0.8,1.3,1.7,1.5,2.2c-1.2-1.1-2-2.5-2.9-4.2c-0.5-0.8-0.9-1.7-1.4-2.6c-0.6-0.9-1.2-1.8-1.9-2.7
			c-0.7-0.6,0,0.5-0.8-0.3c-0.5-0.6-1.1-2-1.4-1.8c-0.7-0.9-0.5-1-1.3-1.9c0.3,0.1,0.8,0.9,1.2,1.4c0.1-0.4-1.2-1.8-2.1-2.7
			c-0.5-1.1-0.1-1.1-0.8-2.5c0.3,0.2,0.9,0.9,1.2,1c-0.8-1.2-2.4-2.8-2.6-2.7c-0.9-1.3-3.1-3.5-3.5-4.5c0-0.6,1.1,0.3,1.6,0.4
			c-0.2-0.4-0.6-0.9-1.1-1.5c-0.3-0.3-0.6-0.7-0.9-1c-0.3-0.3-0.6-0.7-1-1c0.1-0.4-1.4-2-3-3.7c-0.4-0.4-0.8-0.9-1.2-1.3
			c-0.4-0.4-0.8-0.8-1.2-1.2c-0.7-0.7-1.3-1.4-1.5-1.8c-0.8-0.7-1.6-1.5-2.4-2.3c-0.9-0.7-1.8-1.5-2.7-2.2c-0.9-0.7-1.8-1.5-2.7-2.2
			c-0.4-0.4-0.9-0.7-1.3-1c-0.4-0.3-0.9-0.6-1.3-0.9c-0.1-0.3,0.7,0.3,0.8,0.2c-1.1-0.9-2.8-2.1-4.1-3.1c-0.7-0.5-1.3-0.9-1.8-1.3
			c-0.5-0.4-0.8-0.7-0.8-0.9c-1.6-1-3-2-4.2-2.9c-1.3-0.8-2.4-1.6-3.5-2.4c0.1-0.2,1,0.3,2.1,0.9c-0.1-0.4-2-1.6-3.1-2.4
			c-0.4-0.2-0.8-0.4-1.2-0.6c-0.4-0.2-0.8-0.4-1.2-0.6c-0.8-0.4-1.7-0.9-2.5-1.5c-0.8-0.5-1.7-1-2.6-1.5c-0.9-0.5-1.9-0.9-2.8-1.3
			c0.3,0.4,1.1,1,1.9,1.7c0.8,0.7,1.7,1.4,2.1,1.8c0,0-1.1-0.2,0.6,0.6c-0.1,0.1-0.6-0.2-1.4-0.6c0,0.1,0.5,0.4,1.3,0.8
			c-1.1-0.2,1.3,1.3,0.4,1.1c1.2,0.8,2.1,1.5,3,2.2c0.8,0.7,1.7,1.5,2.9,2.3c0.6,0.7,1.1,1.4,1.6,2c0.2,0.3,0.5,0.6,0.7,0.9
			c0.2,0.3,0.4,0.6,0.6,0.9c0.8,1.1,1.3,2.1,1.7,3.1c0,0.1,1,0.7,1.2,0.9c-0.5-0.2-0.4,0.2-1.4-0.5c0,0.1,0.9,0.6,0.9,0.7
			c-1.6-0.7-1.3,0-1.2,0.6c-0.3-0.1-0.7-0.4-1.3-0.7c1.3,1.5-1.7-0.2-0.9,1c-0.9-0.6-1.7-1.1-2.4-1.5c-0.8-0.4-1.5-0.8-2.2-1.1
			c-1.4-0.7-2.7-1.2-4-1.7c-1.3-0.5-2.6-0.9-4-1.5c-1.4-0.6-2.9-1.3-4.8-2.1c0.1-0.3-1.3-1-2.1-1.6c0.9,0.3,1.9,0.6,2.9,0.9
			c0.5,0.2,1,0.3,1.5,0.5c0.5,0.2,1,0.4,1.5,0.6c2,0.8,4,1.6,5.7,2.2c0.2-0.1-0.3-0.5-0.8-0.8c-0.8-0.4,0.1,0.3-1-0.3
			c0.5-0.5-5.3-3-7.8-4c-0.8-0.4-0.8-0.6-1.6-1c-0.5-0.2-1-0.4-1.6-0.6c-0.6-0.2-1.2-0.4-1.8-0.7c-1.2-0.5-2.4-0.9-3.1-1.3
			c-0.4-0.1-0.9-0.3-1.3-0.4c-0.2-0.1-0.5-0.2-0.7-0.2c-0.2-0.1-0.5-0.1-0.7-0.2c-1-0.3-2-0.6-3-0.9c-1-0.3-1.9-0.6-2.8-0.9
			c-0.9-0.3-1.6-0.5-2.3-0.8c2,0.6,4.2,1.4,6.2,2c1,0.3,2,0.6,2.9,0.8c0.9,0.3,1.7,0.5,2.5,0.7c-0.9-0.7-2.7-1.1-4.1-1.5
			c0.5,0,1.7,0.3,2.2,0.4c-0.5-0.5-1.3-0.7-2-0.8c-0.7-0.2-1.5-0.3-2.2-0.5c-0.4-0.3-1-0.5-1.6-0.8c-0.6-0.3-1.3-0.5-2.1-0.7
			c-1.4-0.4-2.8-0.7-3.7-0.9c0.4,0.2,1.1,0.5,1.3,0.7c-0.5-0.1-1-0.1-1.5-0.2c0.3,0.2,0.8,0.5,2.1,0.8c-1.1,0,1.1,0.7,2.3,1.3
			c-0.1,0-0.3,0-0.6-0.1c-0.3-0.1-0.6-0.2-0.9-0.3c-0.6-0.2-1-0.5-0.6-0.4c-0.7-0.2-1.3-0.3-0.7-0.1c-0.1,0.1-1.1-0.2-1.1-0.3
			c-0.4,0-1.1,0-0.5,0.6c-2.2-0.8-2.9-0.4-5.3-0.9c-0.6,0.1,1.3,0.6,0.3,0.4c-0.6-0.1-0.7-0.2-0.7-0.3c-1.2-0.2-1.9-0.4-2.7-0.6
			c-0.4-0.1-0.8-0.2-1.2-0.3c-0.2,0-0.4-0.1-0.6-0.1c-0.2,0-0.5-0.1-0.7-0.1c-1.2,0-1.9,0.2-4.6-0.4c0,0.4,0.8,0.6,0.3,0.8
			c-0.6,0-1.2-0.1-1.8-0.2c-0.6-0.1-1.3-0.2-1.9-0.3c-1.3-0.2-2.6-0.5-3.9-0.7c-1.3-0.3-2.5-0.4-3.5-0.4c-1,0-1.8,0-2.4,0.3
			c-1-0.3-1-0.4-0.4-0.6c-0.6-0.1-1.2-0.2-1.8-0.3c-0.6-0.1-1.3-0.2-2-0.2c-1.4-0.1-2.8-0.3-4.3-0.4c-0.4,0-0.7-0.1-1.1-0.1l-1.1,0
			c-0.8,0-1.5,0-2.2,0c-0.7,0-1.5,0-2.2,0c-0.7,0-1.4,0-2.1,0.1c0.5,0.1,0.3,0.3,1.5,0.4c-0.9,0.2,0,0.4,0.1,0.7
			c-0.7-0.1-1.8-0.1-2.9-0.1c0.2-0.1,0.8-0.3-0.4-0.2c0.2-0.1,0.5-0.2,1-0.2c-0.8,0-1,0-2.2,0c-0.7,0.1-0.2,0.2-0.7,0.3
			c-0.9,0-1.3-0.1-1.1-0.3c-1.3,0.2-0.7,0-1.4,0c-0.5,0-0.5,0.2-0.2,0.2c-1.1,0-3.6,0.4-5,0.7c1.5-0.3-3.1,0.2-0.8-0.2
			c-0.6,0.1-1.2,0.1-1.7,0.1c-0.5,0.1-1,0.1-1.5,0.2c-0.9,0.1-1.8,0.2-2.6,0.4c-0.8,0.1-1.6,0.2-2.4,0.3c-0.4,0-0.8,0.1-1.2,0.2
			c-0.4,0.1-0.9,0.1-1.3,0.2c-0.8,0.2,0.5,0-0.3,0.3c-1.5,0.1-4.4,0.8-4.7,0.4c-2.4,0.6-3.4,0.9-4.8,1.4c-0.1,0.1,0.3,0,0.7-0.1
			c-0.8,0.4-1.5,0.2-1.8,0.2c-0.6,0.2-1.2,0.3-1.8,0.5c-0.6,0.2-1.1,0.4-1.7,0.5c-1.1,0.3-2.1,0.7-3,1.1c0.2-0.3-0.9,0.1-1.2,0
			c-0.3,0.1-0.9,0.3-1,0.5c0.4,0,0.9-0.4,1.4-0.4c-1.4,0.4-3.1,1.1-4.7,1.8c-0.8,0.3-1.6,0.7-2.4,1c-0.4,0.2-0.7,0.3-1,0.5
			c-0.3,0.2-0.6,0.3-0.8,0.5c-1,0.4-0.4,0.1-0.4-0.1c-1.6,0.7-1.6,1-3.5,1.8c0.5-0.4,1.8-1,2.1-1.3c-1.4,0.6-1.7,0.5-3.4,1.3
			c-0.6,0.3,0.6-0.1-0.9,0.5c0,0.2,1-0.2,0.9,0.1c-0.7,0.2-1.8,0.6-1.2,0.1c-0.6,0.3-1,0.5-1,0.4c-0.7,0.5-1.5,1-2.4,1.5
			c0.4,0,1-0.6,1.6-0.8c-0.4,0.5-2.6,1.6-4,2.4c0.5-0.4,1.2-0.9,2.1-1.4c-0.7,0.2-1.5,0.6-2.3,1.1c0.1-0.1,0.3-0.3,0.2-0.3
			c-1.9,1.1-2.7,1.6-4.6,2.8c-0.4,0.1-0.7,0.3-1,0.4c-0.9,0.6-1,0.7-1.9,1.1c-0.3,0.2-0.5,0.4-0.5,0.5c0.2,0.1,1.3-0.9,1.6-0.9
			c-0.1,0.1-1.8,1.1-2.2,1.3c0.2,0.1-1.4,0.9-2.1,1.6c-3.8,2.2-8.5,6.6-12.2,9.2c-0.3,0.3-0.5,0.5-0.8,0.8c-0.3,0.3-0.6,0.6-1,0.9
			c-0.2,0.1-0.4,0.2-0.4,0.1c-0.4,0.4-1,0.9-1.1,0.9c-0.3,0.3-1.1,1.3-0.4,0.6c0,0.2-1.4,1.1-0.7,0.4c-0.2-0.1-1.4,1.1-2.2,1.8
			c0,0.2,0.2,0,0.5-0.3c0.3-0.2,0.6-0.5,0.7-0.6c-1,0.8-1.5,1.5-2.2,2.1c-0.6,0.6-1.2,1.3-2.1,2.3c-0.9,0.7,1-1,0.9-1.1
			c-0.4,0.2-0.9,0.5-1.5,1c-0.6,0.5-1.3,1-2,1.7c0.5-0.6,1-1.1,1.7-1.6c0.6-0.5,1.3-1,1.9-1.6c0-0.2,0.7-0.9,1.6-1.9
			c0.5-0.5,1-0.9,1.6-1.4c0.5-0.4,1-0.9,1.5-1.2c0.2-0.2,0.2-0.3,0.5-0.5c0-0.2-0.3,0.1-0.6,0.4c0.5-0.6,1.4-1.3,2.2-1.9
			c0.8-0.7,1.6-1.2,1.8-1.7c-0.4,0.2-0.7,0.6-1,0.8c-0.3,0.3-0.5,0.5-0.8,0.4c-0.4,0.4-1.2,1.4-1.6,1.5c0.4-0.4,0.8-0.9,1.3-1.3
			c0.2-0.2,0.5-0.5,0.7-0.7c0.3-0.2,0.5-0.4,0.8-0.6c1-0.9,2.1-1.7,3.2-2.6c0.5-0.4,1-0.8,1.5-1.2c0.5-0.4,1-0.7,1.5-1.1
			c1-0.7,1.8-1.3,2.4-1.9c-1.6,1.1-3,2-4.3,2.7c-0.2,0,1.4-0.9,0.8-0.8c-0.4,0.1-2.1,1.8-2.7,1.9c-0.8,0.7,0.7-0.5,0.4,0
			c-0.3,0.1-2,1.6-1.1,1c-0.4,0.3-1.1,0.8-1.8,1.3c-0.4,0.3-0.8,0.6-1.2,0.9c-0.4,0.3-0.8,0.7-1.2,1c-1.6,1.3-3.2,2.7-3.9,3.6
			c-0.9,0.7,0.4-0.6,0.3-0.7c-0.3,0.3-0.5,0.6-0.8,0.9c-0.3,0.3-0.6,0.7-0.9,1c-0.7,0.7-1.3,1.4-2,2.1c-0.6,0.6,0.2-0.4-0.4,0.1
			c-0.6,0.6-0.8,0.8-0.6,0.9c-0.1,0-0.6,0.4-0.9,0.7c-0.3,0.3-0.6,0.5-0.4,0.1c-0.8,1-1.5,1.9-2.5,3.1c0-0.1,0.4-0.5,0.3-0.6
			c-0.8,1.1-1.7,2-2.5,3c-0.8,1-1.6,1.9-2.3,2.9c0-0.1,0.2-0.3,0.1-0.3c-0.6,0.7-1.1,1.3-1.6,1.9c-0.2,0.3-0.5,0.6-0.7,0.9
			c-0.2,0.3-0.4,0.6-0.7,0.9c-0.9,1.1-1.7,2.2-2.4,3.2c-0.4,0.5-0.8,1-1.2,1.5c-0.4,0.5-0.7,1.1-1.1,1.6c-0.7,1.1-1.5,2.2-2.3,3.5
			c0.1-0.3,0.3-0.8,1.1-1.9c-0.5,0.4-1.2,1.4-2,2.6c-0.7,1.2-1.4,2.5-2.1,3.5c-0.3,0.4-0.7,0.7-0.9,1.2c-0.3,0.4-0.2,0.7-0.2,0.7
			c-0.3,0.4-0.8,1.4-1.3,2.2c-0.5,0.9-1,1.7-1.2,1.8c0.6-1.2,1.6-2.8,1.9-3.6c-0.7,0.8-2,3.3-2.6,3.6c1.4-2.2,1.4-2.2,2.2-3.8
			c0.3-0.1,0.1,0.2-0.4,1c0.1-0.1,0.4-0.6,0.5-0.6c0.3-0.9,0.9-1.9,1.6-3.1c0.7-1.1,1.5-2.3,2.4-3.5c0.9-1.2,1.8-2.4,2.6-3.6
			c0.4-0.6,0.8-1.2,1.1-1.8c0.3-0.6,0.7-1.1,0.9-1.7c0.7-0.6,1.8-2,2.9-3.5c0.3-0.4,0.6-0.8,0.9-1.1c0.3-0.4,0.6-0.7,0.9-1.1
			c0.6-0.7,1.1-1.4,1.6-1.9c0,0.2-0.5,0.8-0.5,1c1.3-1.5,0.9-1.2,1-1.5c0.4-0.4,0.6-0.6,0.8-0.9c0.2-0.3,0.5-0.7,1.1-1.3
			c0.6-0.1,2-2.1,3-2.8c0.2-0.2,0.2-0.3,0.4-0.6c0-0.2-0.8,0.6-1.2,0.9c0.5-0.5,1.1-1.2,1.8-1.9c0.3-0.4,0.7-0.7,1.1-1.1
			c0.4-0.4,0.8-0.7,1.1-1.1c0.8-0.7,1.5-1.4,2.3-2.1c0.4-0.3,0.7-0.6,1-0.9c0.3-0.3,0.7-0.5,1-0.7c0.5-0.5,0.5-0.7,0.9-1.1
			c0.6-0.1,2.1-2,1.8-1.3c0.9-0.9,1.8-1.8,2.5-2.6c1.6-1.3-0.9,1,0.7-0.3c0.1,0.1-1,0.8-1.4,1.2c1.4-0.8,2.8-1.9,4.9-3.8
			c-0.5,0.2-1.7,1.2-2.4,1.7c-0.1-0.1,1-1,0.6-1c2.4-1.8,1.1-1.3,2.5-2.1c-0.3,0.1-0.7,0.4-1.2,0.8c0.5-0.7,2.3-1.9,3.8-2.9
			c-0.4-0.2-1.1,0.9-2.7,1.9c0.1-0.1,0.5-0.4,0.5-0.6c-0.8,0.5-1.5,1-2.2,1.5c-0.7,0.5-1.3,0.9-2,1.4c-1.3,0.9-2.6,1.7-4,2.9
			c-0.4,1-1.9,1.4-3.8,3c0.8-0.8,2.3-2,1.7-1.9c-0.5,0.6-1,1.1-1.6,1.6c-0.3,0.2-0.6,0.4-0.8,0.7c-0.1,0.2-0.2,0.3-0.1,0.4
			c-1.6,1.6-1.5,1.2-1.9,1.3c-0.8,0.9-1.4,1.5-2.1,2.2c-0.4,0.3-0.7,0.7-1.2,1.1c-0.4,0.4-0.9,0.9-1.4,1.5c-0.7,0.8,0.3-0.2,0.2,0.1
			c-0.6,0.6-1.6,1.7-1.7,1.5c-0.8,0.8-0.7,0.9-1.5,1.7c0.2-0.1,0.5-0.3,0.9-0.7c-0.2,0.2-0.5,0.5-0.8,0.9c-0.2,0.2-0.4,0.3-0.5,0.5
			c-0.2,0.2-0.4,0.4-0.5,0.6c-0.7,0.7-1.4,1.5-1.5,2c-0.4,0.4-0.9,0.9-1.5,1.5c-0.3,0.3-0.5,0.6-0.8,0.9c-0.3,0.3-0.6,0.6-0.8,1
			c-1.1,1.4-2.2,3-3.1,4.4c0.3-0.7,0.3-0.7-0.3-0.2c-0.2,0.4-0.5,0.8-0.8,1.2c-0.3,0.4-0.6,0.9-0.9,1.3c-0.6,0.8-1.1,1.5-1.5,1.7
			c-0.3,0.6-0.7,1.2-1.1,1.9c-0.2,0.3-0.4,0.7-0.6,1c-0.2,0.3-0.4,0.7-0.5,1c0.1-0.1,0.4-0.6,0.7-1c0.3-0.4,0.5-0.7,0.5-0.5
			c-0.5,0.4-1.5,2-1.6,2.5c-0.5,0.5-0.8,1-0.7,0.5c-0.6,1.1-1.2,2.1-1.8,3.2c0.5-0.4,1.1-1.8,1.2-1.5c0.5-0.9,1-1.7,1.5-2.5
			c0.5-0.8,1-1.5,1.5-2.2c1-1.4,1.9-2.6,2.4-3.7c0.3-0.2,0.8-1,1.3-1.7c0.5-0.7,1-1.4,1.1-1.6c0.7-0.3,1.5-1.5,2.6-3.2
			c0.5,0.1,0.1,0.8,0.7,0.9c-0.5,0.8-0.8,1.3-1.1,1.9c-0.6,0.6-1.1,1.1-1.6,1.7c-0.2,0.3-0.5,0.7-0.8,1c-0.3,0.4-0.5,0.8-0.9,1.3
			c0.6-1.6-2.8,3.5-1.9,2.7c-0.4,0.5-0.7,0.8-1.1,1.2c-0.3,0.3-0.6,0.6-1,1.1c-0.6,0.9-0.1,0.6-0.6,1.4c-0.3,0-1.2,1.7-2.1,3.1
			c0,0.2,0.3-0.2,0.5-0.6c-0.3,0.5-0.7,1.2-1.1,1.8c-0.4,0.7-0.8,1.4-1.2,2.2c-0.8,1.5-1.7,3-2.4,3.9c-0.2,0.4,0,0.3,0,0.4
			c-1.1,1.7-2,3.4-2.9,5.2c-0.5,0.9-0.9,1.9-1.4,3c-0.5,1.1-0.9,2.2-1.5,3.4c0-0.2,0.1-0.4,0-0.4c-0.7,1.5-0.9,2.5-1.7,4.1
			c1-2.8,1.4-4.3,3-7.9c-0.8,1.1-1.7,3.9-2.6,5c0.5-0.7,0.4-0.4,0.1,0.2c-0.3,0.6-0.7,1.5-0.9,1.9c-0.3,1.4-1,2.7-1.4,4.2
			c-0.3,0.4,0.1-1-0.2-0.1c0.2-1,2.2-5.4,1.9-6c0.5-1.4,0,0.1,0.4-0.3c0.5-1.2,0.2-1,0.4-1.8c-0.2,0.5-0.4,0.9-0.6,1.4
			c-0.2,0.5-0.4,1-0.6,1.5c-0.4,0.9-0.7,1.8-0.8,2.4c-0.4,1-0.9,2.1-1.4,3.2c-0.4,1.1-0.8,2.3-1.2,3.4c-0.4,1.1-0.7,2.2-1,3.2
			c-0.3,1-0.4,1.9-0.5,2.6c-0.1-0.4-0.3,0.5-0.4,0.7c-0.2,0.8-0.4,1.6-0.6,2.5c-0.2,0.9-0.5,1.7-0.7,2.6c-0.4,1.7-0.6,3.1-0.5,3.7
			c-0.2,0.8-0.3,0.1-0.4,0.3c0.2-1.1,0.3-2.1,0.5-3.1c0.2-1,0.4-1.9,0.7-2.8c0.5-1.8,0.9-3.4,1.1-5c-0.2,0.1-0.7,2.5-0.6,1.4
			c-0.3,1.2-0.6,2.5-1,3.9c-0.2,0.7-0.3,1.4-0.5,2.1c-0.2,0.7-0.3,1.4-0.5,2.2c-0.3,1.4-0.7,2.8-0.9,4.1c-0.2,1.3-0.4,2.5-0.5,3.4
			c-0.3,0.6,0.2-1.6,0.1-1.5c-0.2,1.3-0.4,2.7-0.7,4.1c-0.1,0.7-0.2,1.4-0.3,2.1c-0.1,0.7-0.2,1.4-0.3,2.1c-0.2,1.4-0.3,2.7-0.5,3.9
			c-0.1,1.2-0.1,2.4,0,3.3c-0.2,0.3,0-1.2-0.2-1.1c0,1.4-0.2,2.6-0.4,3.8c-0.1,0.6-0.2,1.2-0.2,1.8c0,0.6,0,1.2,0.1,1.9
			c-0.1,0.5-0.2,0.8-0.3,1.1c0,0.8,0,1.7,0,2.6c0,0.9,0,1.7,0,2.3c-0.1-0.1-0.1-0.7-0.1-1.1c-0.1,0-0.1,0.5-0.1,0.8
			c-0.4-1.2-0.3,1.5-0.2,4.7c0,0.8,0.1,1.7,0.1,2.5c0.1,0.8,0.2,1.7,0.3,2.4c0.2,1.5,0.3,2.8,0.4,3.4c0,0.5-0.1,0-0.1,0
			c0.1,1.4,0.3,2.8,0.4,4.1c0.2,1.4,0.4,2.7,0.5,4.1c0,0.3,0.1,0.7,0.1,1c0.1,0.3,0.1,0.7,0.2,1c0.1,0.7,0.2,1.4,0.4,2.1
			c0.2,1.4,0.5,2.8,0.7,4.4c0.1,0.5,0.1,0,0.1-0.4c0.2,1.2,0.8,5.7,1.6,7.3c-0.1-0.1-0.2-0.6-0.3-0.7c0.3,1.3,0.5,1.1,0.9,2.4
			c-0.1,0.2-0.2-0.2-0.3-0.3c0.5,2.6,1.5,4.7,1.6,6.2c0.2,0.7,0.4,0.9,0.7,1.7c0.4,0.4-0.2-1,0-0.8c0.1,0.4,0.2,1,0.5,1.8
			c-0.1-0.3-0.2-0.1-0.4-0.6c-0.1,0.2,0.4,0.9,0.2,1.1c0.3,0.5,0.6,1.5,0.8,1.7c0.1,0.5,0,0.4-0.1,0.5c0.3,1.1,0.6,2.2,1,3.1
			c0.4,1,0.8,1.9,1.2,2.9c0.4,0.9,0.8,1.9,1.2,2.8c0.2,0.5,0.4,1,0.6,1.5c0.2,0.5,0.5,1,0.7,1.5c0.1,0.6,0.5,1.8,1.1,3.2
			c0.3,0.7,0.6,1.4,0.9,2.1c0.3,0.7,0.7,1.4,1,2c-0.7-0.9,1,2.3,1.1,2.8c0.1,0.3,0.2,0.3,0.4,0.6c0.4,0.4-0.4-1-0.1-0.8
			c0.6,1.3,0.8,2.2,1,2.9c-0.4-1.2-0.4-0.6-1.2-2.3c0.1,0.5,0.5,1.1,0.8,1.8c0.4,0.7,0.8,1.3,1.1,1.8c0.2,0-0.1-0.5-0.4-1
			c0.4,0.8,1.3,2.2,2,3.5c0.5,0.8,0.9,1.6,1.2,2.2c0.3,0.7,0.6,1.2,0.7,1.4c0.9,1.2-0.1-0.6,0.7,0.4c-0.3-0.5-0.7-1.1-1.1-1.6
			c-0.4-0.6-0.7-1.2-1.1-1.9c-0.7-1.3-1.3-2.5-1.6-3.4c0.8,1.5,1.2,2,1.5,2.1c0.9,1.5,1.9,3.3,2.2,4c0.5,0.6,1,1.3,1.4,1.8
			c0.5,0.8,1,1.7,1.6,2.5c0.3,0.4,0.5,0.8,0.8,1.2c0.3,0.4,0.6,0.8,0.8,1.2c1.1,1.5,2.1,3,2.7,4.2c-0.7-0.9-0.4-0.9-1-1.6
			c0.4,0.8,0.9,1.4,1.7,2.5c0.1,0,0-0.1-0.1-0.4c0.7,1,2,2.5,3.2,4c0.6,0.7,1.2,1.5,1.7,2.2c0.5,0.7,1,1.3,1.3,1.8
			c0.8,0.7,1.9,2,2.9,3.2c0.3,0.3,0.5,0.6,0.8,0.9c0.3,0.3,0.5,0.5,0.8,0.8c0.5,0.5,0.9,0.9,1.2,1.1c0.4,0.6,0.5,0.9,1.6,2.2
			c0-0.2,1,0.6,1,1.1c1.1,1,2.4,2.1,3.6,3.3c0.6,0.6,1.2,1.2,1.9,1.8c0.6,0.6,1.3,1.2,1.9,1.7c1.3,1.1,2.6,2.2,3.8,3.3
			c1.3,1,2.5,1.8,3.6,2.5c0.6,0.5,0.5,0.6,1.1,1.1c0.1-0.1-0.3-0.4-0.2-0.4c0.8,0.9,1.7,1.5,2.3,2c0.1,0.1-1.9-1.1-0.1,0.2
			c-0.7-0.3-1.6-1.4-3.2-2.6c0.2,0.3,1.2,1,1.7,1.5c-0.4-0.1-1.2-1-1.8-1.4c0.7,0.8,2.5,2.3,4.1,3.4c-1.8-1.1-3.4-2.6-5.2-3.9
			c-0.9-0.7-1.8-1.4-2.6-2.1c-0.8-0.7-1.7-1.5-2.5-2.3c-0.8-0.7-1.7-1.5-2.5-2.2c-0.8-0.8-1.6-1.5-2.4-2.3c-1.6-1.5-3.3-3-4.8-4.5
			c-0.8-0.9-1-1.3-1.6-2.1c-0.5-0.5-0.4,0-1.2-0.9c0-0.3-0.5-0.7-1-1.2c-0.5-0.4-0.9-0.8-0.6-0.9c-0.7-0.6-1.5-1.4-2-1.7
			c-0.6-0.7-0.7-1-0.9-1.3c0,0.2-0.2,0-0.6-0.5c-0.2-0.2-0.5-0.5-0.7-0.8c-0.2-0.3-0.5-0.7-0.8-1c-1.1-1.4-2.3-3-2.5-3.1
			c-0.4-0.6-1-1.3-1.6-2.2c-0.6-0.9-1.4-1.9-2.1-2.9c0,0.3,0.7,1.4,1.5,2.5c0.7,1.1,1.7,2.1,2,2.4c0.6,1,1.4,2.1,2.2,3.1
			c0.4,0.5,0.8,1,1.2,1.5c0.4,0.4,0.7,0.8,1,1.1c0.1,0.4-0.9-0.9-0.9-0.7c0.1,0.2,0.2,0.4,0.1,0.4c1.2,1.3,2.6,3.1,3.1,3.3
			c0.3,0.4,0.6,0.8,0.9,1.1c0.3,0.4,0.6,0.7,0.9,1c0.6,0.6,1.2,1.3,1.7,1.9c0.6,0.6,1.1,1.2,1.7,1.9c0.6,0.6,1.1,1.4,1.7,2.1
			c0.8,0.7,1.3,1,2.5,2.2c0.8,0.9-0.8-0.6-1.1-1c0.6,0.6,1.2,1.3,2,2.1c0.4,0.4,0.8,0.8,1.2,1.2c0.4,0.4,0.9,0.8,1.5,1.2
			c0-0.2-1.4-1.2-1.9-1.8c0.5,0,2.1,1.8,3.8,3.1c-0.2-0.1-0.7-0.4-1.2-0.9c0.9,0.9,1.9,1.8,2.9,2.8c0.3,0.2,0.5,0.5,0.8,0.7
			c0.3,0.2,0.5,0.4,0.8,0.6c0.5,0.4,1,0.8,1.5,1.2c0.5,0.1-0.9-0.8-0.5-0.7c0.3,0.2,1.4,1.4,1.5,1.2c1.1,1.1,2.4,2.2,3.9,3
			c0.2,0.3,1.1,0.9,2.1,1.6c-0.9-0.5-1.7-1.1-2.7-1.8c-0.2-0.2-0.5-0.4-0.8-0.5c-0.3-0.2-0.5-0.4-0.8-0.6c-0.6-0.4-1.2-0.9-1.8-1.3
			c1,1,2.6,2.4,3.8,3.1c-0.3,0,1.1,0.9,2.6,2c0.7,0.5,1.5,1.1,2.2,1.6c0.6,0.5,1.1,0.9,1.3,1.1c2.2,1.3,3.7,2.4,5.2,3.4
			c1.6,1,3.2,2,5.8,3.3c-1.4-0.7-0.7-0.2,0.5,0.4c1.2,0.6,3,1.5,3.9,2c0.5,0-0.9-0.6-1.3-0.9c-0.4-0.1-1-0.3-2.1-0.9
			c0.1-0.3,3.8,1.6,4,2.1c0.6,0.3,1.2,0.6,1.8,0.9c0.6,0.3,1.2,0.5,1.7,0.8c1.1,0.5,2.1,1,3,1.4c1.9,1,3.6,1.7,5.5,2.6
			c1,0.3-0.7-0.4-1-0.6c0.5,0.2,1.2,0.5,2.2,0.9c0.9,0.4,2,0.8,3.2,1.2c1.2,0.4,2.4,0.8,3.6,1.2c1.2,0.4,2.2,0.8,3.1,1.1
			c2,0.5,3.6,1,5.2,1.5c0.4,0.1,0.8,0.3,1.2,0.4c0.4,0.1,0.9,0.2,1.3,0.4c0.9,0.2,2,0.5,3.2,0.8c0-0.1-0.4-0.2-0.7-0.2
			c10.4,2.4,20.4,3.8,29.6,4c0,0.1-1,0-0.7,0.2c1.4,0.3,3.7,0.1,3-0.1c0.7,0.1,1.9,0.1,3.5,0.1c1.6,0,3.4,0,5.4-0.2
			c2-0.2,4-0.3,6-0.5c1,0,1.9-0.2,2.8-0.3c0.9-0.1,1.7-0.2,2.4-0.2c0.1,0,0,0.1,0,0.1c0.2,0,2.2-0.4,1.1-0.1
			c0.7-0.1,1.5-0.3,2.4-0.4c0.8-0.2,1.7-0.3,2.6-0.5c1.7-0.3,3.5-0.6,5.1-0.9c0.9-0.2,0.9,0,0.4,0.2c0.7-0.2,1.5-0.3,2.2-0.5
			c0.9-0.2-0.5,0-0.1-0.2c1.5-0.3,2.9-0.5,4.2-0.7c1.3-0.2,2.6-0.6,3.9-1c-0.1,0.2,0.3,0.1,0.5,0.1c1.5-0.5,4-1,5.1-1.5
			c0.2,0.1-1.3,0.5-1.4,0.7c2-0.7,4.1-1.2,6.4-1.9c1.1-0.3,2.3-0.7,3.4-1.2c1.2-0.4,2.4-0.9,3.6-1.5c1.2-0.1-2.3,0.9-2.4,1.2
			c0.9-0.3,1.8-0.7,2.7-1c0.5-0.2,0.9-0.4,1.4-0.6c0.5-0.2,0.9-0.4,1.4-0.7c1.8-0.9,3.5-1.7,5-2.2c0.8-0.3,0.3-0.3,0.9-0.6
			c1.4-0.6,2.8-1.2,4.1-1.9c0.7-0.3,1.4-0.7,2.1-1.1c0.7-0.4,1.3-0.8,2-1.2c0.5,0.2,2.3-0.8,4.3-2c1-0.6,2.1-1.3,3.1-1.9
			c1-0.6,2-1.2,2.8-1.6c0.5-0.4,1.1-0.8,1.7-1.2c0.6-0.4,1.2-0.9,1.9-1.4c1.3-0.9,2.6-1.8,3.7-2.4c0.6-0.5,0.7-0.7,1.1-1.1
			c1.1-0.9,0.1-0.1,0.4-0.1c0.9-0.7,0.8-0.8,1.7-1.5c-0.1,0-0.6,0.4-0.9,0.7c0.9-0.8,2.1-1.8,3.3-2.7c0.3-0.2,0.6-0.5,0.9-0.7
			c0.3-0.3,0.6-0.5,0.9-0.8c0.6-0.5,1.1-1,1.7-1.4c-0.5,0.6-1.5,1.5-2.5,2.4c-1,0.8-2.1,1.7-2.7,2c-0.3,0.3-0.1,0.3-0.5,0.6
			c0.5-0.1,2.4-1.5,3.1-2.3c1.1-0.8,1.8-1.3,2.8-2.1c1.3-1.1,0.3-0.7,1.5-1.7c0.5,0,1.9-1.1,3.2-2.5c1.3-1.3,2.7-2.7,3.4-3
			c0.9-0.9,2-2.2,3.3-3.5c1.3-1.4,2.7-2.7,3.8-4c-0.6,1-0.2,0.6,0.7-0.4c-1.5,1.9-1.4,1.3-3,3.5c0.5-0.3,0.8-0.5,1.8-1.6
			c-1.5,1.4-0.2,0.1,0.9-1.3c-0.4,0.5-0.4,0.8-0.5,1.1c-1.1,1.2-2.7,2.9-4.3,4.7c-0.4,0.4-0.8,0.9-1.1,1.3c-0.4,0.4-0.8,0.8-1.1,1.2
			c-0.7,0.8-1.3,1.4-1.7,2c1.1-1.1,2.7-2.5,3.3-3.2c-0.1-0.1-0.4,0.1-1,0.7c-0.1,0,0.2-0.3,0.5-0.6c0.3-0.3,0.6-0.7,0.8-0.9
			c-0.7,1,0.7-0.5,0.8-0.3c-0.5,0.6-1,1.2-1.6,1.7c0.4,0.1,2.7-2.8,3.6-3.6c0.1,0.3-0.9,0.8-1.8,2c0.6-0.2,1.7-1.7,2.8-2.7
			c-0.4,0.9-2.7,3.1-4.1,4.7c-0.9,0.9-0.5,0.8-1.9,1.9c-0.2,0.3-1.7,2-3.1,3.5c0-0.1,0.4-0.5,0.4-0.7c-0.5,0.5-0.9,0.9-1.3,1.2
			c-0.3,0.3-0.6,0.6-0.8,0.9c-0.4,0.5-0.6,0.8-0.7,1.2c0.5-0.3,1-0.9,1.8-1.5c-2.2,2.1-0.7,0.9-2,2.4c-0.9,0.8-2.1,1.9-3,2.6
			c-0.9,0.7-1.4,1.2-1,1.1c-2.5,2.2-4.8,3.9-6,5c-1.2,0.6-2.3,1.4-3.3,2.3c-0.5,0.4-1,0.9-1.5,1.3c-0.5,0.4-1,0.8-1.4,1.1
			c0.8-0.5,1.5-0.8,2.1-1.2c0.6-0.4,1.3-0.9,2.2-1.6c0.4,0-1.5,1.4-1.8,1.5c-0.6,0.5-0.8,0.7-0.8,0.9c2-1.2,3.5-2.8,5.2-3.7
			c-1.5,1.2-4.6,3.8-7.6,5.7c-0.6,0.4-2,1.3-3.1,1.9c-0.3,0.2-0.5,0.3-0.7,0.4c-0.2,0.1-0.4,0.2-0.5,0.3c-0.2,0.1-0.2,0.2,0.3,0
			c-1,0.7-5,2.5-4.7,3c-0.4,0.2-0.8,0.5-1.2,0.7c-0.4,0.2-0.8,0.5-1.2,0.7c-0.8,0.4-1.6,0.8-2.4,1.2c-1.6,0.8-3.1,1.7-4.7,2.5
			c-1.6,0.8-3.3,1.5-5,2.3c-0.4,0.2-0.9,0.4-1.3,0.6c-0.4,0.2-0.9,0.4-1.4,0.6c-0.9,0.4-1.9,0.8-2.9,1.2c0.1,0.1,1.6-0.6,2.3-0.8
			c-0.9,0.5,0.6-0.2,0.5,0.1c-1.3,0.4-2.6,0.8-3.5,1c-2.9,1.6-8.9,2.9-10.4,4c-0.8,0.2-1.4,0.4-1.8,0.5c-0.4,0.1-0.6,0.2-0.5,0.3
			c-1.4,0.3-2.5,0.6-3.5,1c-1.1,0.3-2.1,0.7-3.4,1c0.3,0.3,1.7-0.1,3.3-0.5c1.6-0.4,3.4-1,4.6-1.2c-1.6,0.5-3.7,1.1-6,1.8
			c-1.1,0.3-2.3,0.6-3.4,0.8c-1.1,0.3-2.1,0.5-3,0.8c-0.7,0.1-1.5,0.3-2.5,0.5c-1,0.2-2,0.3-3,0.5c-2.1,0.3-4.1,0.7-5.2,0.9
			c0.1,0.2,1.1,0.1,2.9-0.2c0,0.1-1.7,0.3-2.4,0.5c-0.2-0.1-1.4-0.1-2.5,0c-1.5,0.3-3,0.5-4.7,0.6c-0.4,0-0.8,0.1-1.3,0.1
			c-0.4,0-0.9,0.1-1.3,0.1c-0.9,0.1-1.8,0.1-2.7,0.3l0-0.1c-10.1,0.5-19.4,0.1-28.5-1c-6.3-0.8-14.8-2.1-21.7-4.2
			c-1.4-0.2,0.3,0.4,1.1,0.6c-0.3-0.1-0.7-0.1-1.2-0.3c-0.3-0.1-0.5-0.1-0.8-0.2c-0.3-0.1-0.6-0.2-0.9-0.3c-1.3-0.4-2.7-0.8-3.6-1.1
			c0-0.3,1.1,0.3,1.6,0.3c0-0.1-1.6-0.5-2.3-0.7c-0.6-0.1,0.1,0.1,0,0.2c-2.2-0.6-4.2-1.4-6.2-2.1c-1-0.3-1.9-0.7-2.9-1
			c-1-0.3-1.9-0.7-2.8-1.1c-1.8-0.8-3.7-1.5-5.5-2.3c-1.9-0.8-3.8-1.7-5.8-2.6c0.5,0.5,2.6,1.4,4.5,2.3c1.9,0.9,3.8,1.5,3.8,1.8
			c-0.5-0.3-1-0.5-1.4-0.7c-0.5-0.2-0.9-0.4-1.3-0.5c-0.8-0.3-1.7-0.6-2.4-1c0.3,0.4,3.3,1.6,4.1,1.8l-0.1,0.2
			c0.5,0,1.3,0.4,2.3,0.8c-0.1-0.2,0-0.1,0.8-0.1c1.1,0.6,3.2,1.2,2.9,1.4c1.7,0.7,1.3,0.2,3.1,0.9c0.2,0.3-0.8-0.1-0.8,0
			c1.1,0.4,1,0.3,1.9,0.6c-0.1-0.1-1.2-0.5-0.7-0.5c1.9,0.7,4.2,1.7,6.1,2.1c-0.7-0.1,0,0.1,0,0.2c1.2,0.4,0.8,0.1,2,0.4
			c0,0.1-0.5-0.1-0.8-0.2c1.3,0.4,2.7,0.8,4,1.2c1.3,0.4,2.6,0.7,3.9,1c1.3,0.3,2.6,0.6,3.9,0.9c1.3,0.3,2.6,0.5,3.8,0.8
			c1.3,0.2,2.5,0.5,3.8,0.7c1.3,0.2,2.5,0.4,3.8,0.6c1.3,0.2,2.5,0.4,3.8,0.5c0.6,0.1,1.3,0.2,1.9,0.2c0.6,0.1,1.3,0.1,1.9,0.2
			c0.9,0-0.5-0.1,0.4-0.1c2.1,0.2,4.5,0.2,4.8,0.6c1.9,0,4.1,0.2,5.2,0c0.9,0.2,2.6,0.1,2.8,0.3c0.8,0,0.8-0.2,1.2-0.3
			c1,0,5.9,0.3,6.4,0c1.9,0.2,4.8-0.3,5.7-0.1c0,0,0,0,0,0c0.7-0.1,1.9-0.2,1.6-0.4c0.5,0,0.4,0.1,0.4,0.2c1.8-0.3,3.8-0.5,5.9-0.8
			c2.1-0.2,4.3-0.6,6.5-0.9c1.1-0.2,2.1-0.3,3.2-0.5C296.1,353.7,353.7,285.5,353.7,203.6z"/>
		<path d="M157.5,257.9c-5.3-10.7-5-45.5,18.6-63.6c0,0-14.5-10.1-26.7-0.4c-5,4-12.3,11.5-10,29.4c-2.4-7.8-3.6-15-3.6-20.9
			c0-6.4,1-21.2,3.8-28.5c2.8-7.2,6.2-15.5,12.8-22.6c6.6-7.2,23.6-16.6,38.1-16.6c21.3,0,42.1,13.8,42.1,30.9
			c0,18.8-12,19.9-18.1,17.4c-4.1-1.7-9.1-9-9.1-15.7c-5.3,0-19.3,14.6-11.1,35.5c6.4,16.3,29,29.4,55.7,20.5
			c19.3-6.4,34.8-24.1,34.8-54.1c0-16.6-13.7-35.3-24.3-44.8c-10.7-9.5-26.6-20.6-58.2-20.6c-58.1,0-83.3,60.9-85.9,69.7
			c-0.5,1.8-1,3.5-1.4,5.1c-4.7-22.8-16.2-27.6-23.3-29.5c-15.8-4.2-25.6,11.6-25.6,11.6c29.9,7.4,41.6,33.6,46.1,52.3
			c0.5,2.2,1.2,4.2,1.9,6.2c7,40.8,38.6,95.1,126.4,108.8c6.1,0.9,7.9-0.9,7-3.3C216.8,318.6,176.8,297.3,157.5,257.9z"/>
	</g>
</g>
</svg>
