<svg id="Capa_1" data-name="Capa 1" xmlns="http://www.w3.org/2000/svg" viewBox="0 0 800 800"><defs><style>.cls-1{fill:#fff;}</style></defs><path class="cls-1" d="M732.57,558.13c-18.65-17.7-34.11-23-46.82-29.32-7-3.45-13.89-6.64-20.58-9.88q-12-5.83-16.85-12.64T643.46,493a.92.92,0,0,1-.32-.64,21.14,21.14,0,0,1,3.57-11.67,30.35,30.35,0,0,1,7.77-9.4,19.64,19.64,0,0,1,9.4-3.58,10.87,10.87,0,0,1,2.59-.32c2.81,0,6.15,0,8.95,1.09A26.67,26.67,0,0,1,685.47,475a21.75,21.75,0,0,1,5.83,12s.33,3.46.33,4.53c0,7.57-1,10.77-4.47,14.55a16.85,16.85,0,0,1-13,5.67,21.69,21.69,0,0,0,12.32,4.21h2.27c4.75-.65,15.78-3,16.78-11.79a16,16,0,0,0,7.94-2.1,15.18,15.18,0,0,0,5.67-5.35,11.45,11.45,0,0,0,1.94-6.48v-.65a15.11,15.11,0,0,0-3.24-7.78q3.57-1.93,5.51-8.42a17,17,0,0,0,.32-3.24q0-4.86-4.2-10.37c0,1.51-1,2.86-3.09,4a21.38,21.38,0,0,1-7.93,2.43,24.39,24.39,0,0,1-5.84.65,38.65,38.65,0,0,1-4.86-.33,51.69,51.69,0,0,1-12.31-3.23,55.6,55.6,0,0,0-19-3A52.74,52.74,0,0,0,647,464.17,42.88,42.88,0,0,0,620.13,504a45.52,45.52,0,0,0,14.72,33.17c10,9.18,39.68,19.35,56.57,30.67,20.78,13.91,36,38.16,36,65.45S707.72,720,626.06,720c-47,0-75.62-18.92-91.26-39.54-.15-.39-.26-.76-.43-1.16-5.25-12.84-3.18-31.74,13.85-44.8,0,0-10.47-7.29-19.26-.3-3.62,2.88-8.9,8.28-7.24,21.2a52.72,52.72,0,0,1-2.56-15.12c0-4.59.7-15.35,2.75-20.58s4.49-11.17,9.23-16.36,17.08-12,27.55-12c15.38,0,30.4,9.95,30.4,22.32,0,13.58-8.69,14.39-13.09,12.6-3-1.21-6.61-6.48-6.61-11.34-3.84,0-13.94,10.56-8,25.64,4.6,11.77,20.93,21.24,40.24,14.84,14-4.62,25.13-17.41,25.13-39.11,0-12-9.89-25.5-17.6-32.38S589.92,569,567.11,569c-42,0-60.22,44-62.06,50.38-.37,1.3-.7,2.5-1,3.67-3.42-16.48-11.71-19.95-16.84-21.32-11.42-3.05-18.47,8.39-18.47,8.39,21.62,5.37,30,24.28,33.31,37.78a35.49,35.49,0,0,0,1.4,4.44c5.82,34,35.38,81,123.66,81,103.19,0,131.38-72.84,131.38-102.81S746.56,571.41,732.57,558.13Z"/><path class="cls-1" d="M700.76,587.94s23.09,60-21.18,112.18C679.58,700.12,741.37,651.51,700.76,587.94Z"/><circle class="cls-1" cx="487.18" cy="145.83" r="16.06"/><path class="cls-1" d="M179.65,256.54c0,10.08,11,13.31,11,13.31-.69-30.47,34.95-40.79,34.95-40.79C181.88,235.41,179.61,249.59,179.65,256.54Z"/><path class="cls-1" d="M225.61,222.88s-35.73-10-35.33-40.46c0,0-11,1.83-10.92,13.42C179.4,203.93,181.8,216.94,225.61,222.88Z"/><path class="cls-1" d="M160.62,235.1l43.87-9s-37.5-7.95-44-8.63-18.43,8.92-18.43,8.92S153.16,236.64,160.62,235.1Z"/><path class="cls-1" d="M632.48,269.85s11-3.23,11-13.31c0-7-2.24-21.13-46-27.48C597.52,229.06,633.17,239.38,632.48,269.85Z"/><path class="cls-1" d="M643.8,195.84c.06-11.59-10.92-13.42-10.92-13.42.41,30.47-35.33,40.46-35.33,40.46C641.37,216.94,643.76,203.93,643.8,195.84Z"/><path class="cls-1" d="M662.55,235.1c7.45,1.54,18.52-8.74,18.52-8.74s-12-9.6-18.44-8.92-44,8.63-44,8.63Z"/><path class="cls-1" d="M348.26,347.22s7.57,51.89,29.67,98.83C377.93,446.05,370.32,394.33,348.26,347.22Z"/><path class="cls-1" d="M500.6,375.92a36.82,36.82,0,0,0,2.25,13.24,30.92,30.92,0,0,0,6.34,10.28,29.06,29.06,0,0,0,9.43,6.76,28.07,28.07,0,0,0,11.55,2.39q9.57,0,15.91-5.35t6.34-14.93c0-2.25-.42-3.8-1.27-4.65s-1.45-1.07-1.83-.7a14.24,14.24,0,0,1-6.76,2.39,15.11,15.11,0,0,1-7.6-1.12,15.48,15.48,0,0,1-6.34-5.07c-1.79-2.35-2.67-5.5-2.67-9.44q0-9,6.19-13.38a22.17,22.17,0,0,1,13-4.36,20,20,0,0,1,12.82,4.36,27.51,27.51,0,0,1,8.31,11.13,34.52,34.52,0,0,1,2.53,14.64A32.54,32.54,0,0,1,564.53,397L467.28,565.92c-4.69,8.26-9.21,14-14.48,17.37s-11.08,3.89-14.56,4c-.52,0-.56,1-.56,2s2,7.24,10.85,7.24c8.45,0,16.46-10.73,21.45-13.49,8.75-4.84,20.29-3.3,26.9-3,.46-.47,1.25-2.9.68-3.89-1.84-3.25-8.62-7-8.36-10s.93-4.84,3.55-9.16l21.31-34h63.15v12.29a11.14,11.14,0,0,1-1.69,6,15.14,15.14,0,0,1-4.37,4.51,21.62,21.62,0,0,1-5.91,2.82,21.14,21.14,0,0,1-6.06,1v4.78h63.38v-4.78a19.78,19.78,0,0,1-5.92-1,22.24,22.24,0,0,1-5.77-2.82,17.12,17.12,0,0,1-4.51-4.51,10.54,10.54,0,0,1-1.83-6.07V394.85a10.51,10.51,0,0,1,1.83-6.06,17.08,17.08,0,0,1,4.51-4.5,21.65,21.65,0,0,1,5.77-2.83,19.47,19.47,0,0,1,5.92-1v-4.79a37.84,37.84,0,0,1-15.21-2.82A63.67,63.67,0,0,1,595.24,366a118.83,118.83,0,0,1-11-9,85.44,85.44,0,0,0-11.69-9,69.29,69.29,0,0,0-14.08-6.9,52.85,52.85,0,0,0-18.17-2.83,41.85,41.85,0,0,0-15.07,2.74,39.31,39.31,0,0,0-12.67,7.74,37.73,37.73,0,0,0-8.74,11.92A35.64,35.64,0,0,0,500.6,375.92Zm76.61,40.61v92.69H521.7Z"/><path class="cls-1" d="M249.11,287.12c-3.3,12.12-9.89,17-11.9,18.58a9.38,9.38,0,0,1-5.59,2.39c0,2.89,1.52,6.56,7.89,6.21,4.58-.26,10.76-10.58,20.33-17.55,8.06-5.88,18.09-9.06,28.4-10.36,0,0,.71-1.75-.24-2.7-1.13-1.14-4.18-.65-6.63-1.35a25.12,25.12,0,0,1-6.7-3,16.94,16.94,0,0,1-5-4.79,11.23,11.23,0,0,1-1.91-6.43V127.42s74.91,191.43,77.7,191.43,54.85-154.16,54.85-154.16V278a11.24,11.24,0,0,1-1.92,6.43,16.78,16.78,0,0,1-4.95,4.79,25.93,25.93,0,0,1-6.55,3,23.37,23.37,0,0,1-6.71,1.05v5.09h71.87v-5.09a25,25,0,0,1-6.86-1.05,25.32,25.32,0,0,1-6.71-3,16.81,16.81,0,0,1-5-4.79,11.31,11.31,0,0,1-1.91-6.43V113.12c0-6.08,1.9-10.14,6.24-13.57,3.94-3.12,7.85-3.55,14.2-3.55V90.91H400L347.89,247.09,287.28,90.91a66.78,66.78,0,0,0-8.62-14.66,53.77,53.77,0,0,0-9.91-9.72,35.5,35.5,0,0,0-10.37-5.38A34.74,34.74,0,0,0,248,59.5a17,17,0,0,0-9.42,2.39,7.26,7.26,0,0,0-3.67,6.29q6.71,0,11.34,8.37c3.08,5.59,4.11,14,4.11,25.14V269C250.35,276,250.48,282.08,249.11,287.12Z"/><path class="cls-1" d="M394.73,472.84a13.09,13.09,0,0,1-8.7,3.37V481H502.3V439h-4.75q0,11.47-7.9,18.38t-17.41,6.92H432.3V333.45a11.7,11.7,0,0,1,3.95-9.1,12.32,12.32,0,0,1,8.31-3.56v-4.35H386v4.35a12.74,12.74,0,0,1,8.7,3.56,11.73,11.73,0,0,1,3.95,9.1V464A11.06,11.06,0,0,1,394.73,472.84Z"/><path class="cls-1" d="M168.59,647.67a20.58,20.58,0,0,1-15.13,6.24l3.11,5.78H270.94a50.77,50.77,0,0,0,20.69-4.22A55.62,55.62,0,0,0,320.1,627a50.47,50.47,0,0,0,4.24-20.7c0-25.88-19.22-41.83-24.7-45.39a55.33,55.33,0,0,0-18.47-7.57,31.9,31.9,0,0,0,10.23-10.67,28,28,0,0,0,4-14.69,30.41,30.41,0,0,0-30.71-30.7H156.57l-3.11,5.78a21.29,21.29,0,0,1,21.37,21.36V632.55A20.58,20.58,0,0,1,168.59,647.67Zm71.07-17.45c14.23,0,21.28-8.94,21.28-21.88,0-15.29-13.69-24.53-26.2-24.53-9.76,0-20.32,4.32-25.65,9.36v-84h28.47c6.24,0,23.14.64,23.14,20.85,0,22-26.19,23.21-31.15,24.28a10.06,10.06,0,0,0-5.7,3.52c-1.28,1.54-2.23,7-1.36,9.1,3.67-1.87,12.68-3.47,19.32-3.47,9.45,0,22.54,2.67,28.42,6.65a45.69,45.69,0,0,1,14.06,14.57q5.76,9.57,5.78,24.25A46.67,46.67,0,0,1,279,637.44c-6.83,8-21.63,10.19-35.27,10.19-28.3,0-35.21-16.27-35.21-25.43a24.06,24.06,0,0,1,7.11-16.73c4.9-4.75,13.94-7.43,19.16-7.43s9.39,2.63,9.39,8.79c0,4.07-3.14,6.52-6.92,6.52s-5.24-3.73-5.24-5.62c-2.38,0-7.66,3.17-7.66,10.49C224.31,625.06,230.75,630.22,239.66,630.22Z"/><path class="cls-1" d="M527.9,309.61c-3.28,3.27-5.56,6.33-5.56,9.87,0,2,.69,4,2.33,4.59a5.6,5.6,0,0,0,.7.19,31,31,0,0,1,6.63-4.84,26.91,26.91,0,0,1,12.21-2.78q12.74,0,26.14,7t27.2,15.52q13.79,8.49,27.59,15.52t27.33,7q12.46,0,19.37-6.76a22.66,22.66,0,0,0,6.9-16.85A18.45,18.45,0,0,0,677,330a23.52,23.52,0,0,0-4-6,11.86,11.86,0,0,0-4-3.05c-1.15-.44-1.72-.22-1.72.67,0,2.29-1.47,4.86-4.38,7.69s-7.29,4.25-13.14,4.25a61.22,61.22,0,0,1-19.1-3.32q-10.1-3.32-20.56-7.83t-21.49-9.28c-7.35-3.19-12.19-5.76-19.44-7.7V121.33a78.57,78.57,0,0,1,1.58-17.25,43.75,43.75,0,0,1,3.86-11,17.21,17.21,0,0,1,4.64-5.84,7.56,7.56,0,0,1,4.24-1.73c.53,0,.4-.92-.4-2.78s-5-2.79-7.62-2.79q-5.31,0-9.95,4.38t-10.21,9.55a75,75,0,0,1-13,9.56q-7.43,4.38-18.31,4.37s-1.7,4.51,1.21,4.51c7.9,0,15.78,6.59,15.78,16.82v174Q532.79,304.69,527.9,309.61Z"/><path class="cls-1" d="M507.69,328.47a9.69,9.69,0,0,1-6.39-2.59,8.49,8.49,0,0,1-3-6.84V190.3a9,9,0,0,1,3-7,9.46,9.46,0,0,1,6.39-2.74v-3.34h-45v3.34a9.82,9.82,0,0,1,6.69,2.74,9,9,0,0,1,3,7V319a8.51,8.51,0,0,1-3,6.84,10.08,10.08,0,0,1-6.69,2.59v3.65h45Z"/><path class="cls-1" d="M129.12,617.11q10.92-6.43,26.9-6.43v-6.63a28.84,28.84,0,0,1-8.38-1.36,30.16,30.16,0,0,1-8.19-3.9,21.2,21.2,0,0,1-6-6.24,15.36,15.36,0,0,1-2.35-8.38l-.18-103.3c15.54-.05,30-3.84,43.5-8.91a112.65,112.65,0,0,0,35.28-20.81A94.64,94.64,0,0,0,233,419.92a91.88,91.88,0,0,0,8.43-39.28A90.67,90.67,0,0,0,233,341.55a97.46,97.46,0,0,0-23.33-31.22,107.57,107.57,0,0,0-35.28-20.81,126.56,126.56,0,0,0-43.9-7.47q-26.67,0-47.63,8.25t-35.28,22a94.3,94.3,0,0,0-21.76,31.2A90,90,0,0,0,18.38,379q0,24.74,10.39,36.5a33.29,33.29,0,0,0,26.07,11.77,23.81,23.81,0,0,0,16.26-6.47c2.36-2.11,9.53-9.39,9.94-19.26.37-8.95-4-17.6-6.42-16.2,0,3.37-5.48,8.5-10.43,8.5-10,0-17.22-12.95-15-26,2.12-12.52,8.66-24.11,14.78-32.88,9.93-14.23,27.74-24.85,34-28.51L97.87,587c0,10.15-.15,19.5-1.71,26.26s-4.2,13.49-6.82,17.31-8.24,8.58-10.71,10.28-4.48,2.54-6,2.54c-1,0-1,1.36.19,4.1s3.7,4.09,7.6,4.09q7.8,0,14.62-6.43c4.54-4.29,9.56-9,15-14A110.36,110.36,0,0,1,129.12,617.11Zm2.78-315.85a55.86,55.86,0,0,1,24.47,5.49c8.09,3.66,48.85,18.31,48.85,74.09s-40.42,71.31-48.85,74.08a77.24,77.24,0,0,1-24.58,3.77Z"/><path class="cls-1" d="M181.88,332.78s17,57.06-21.55,114.13C160.33,446.91,217.11,408.34,181.88,332.78Z"/><path class="cls-1" d="M504.13,412.75s-38.12-24.24-6.9-63.84C497.23,348.91,447.91,383.52,504.13,412.75Z"/><path class="cls-1" d="M659.39,312s-22.22,11.48-63.71-7.38C595.68,304.65,648,335.27,659.39,312Z"/><path class="cls-1" d="M297.87,499.63s25.35,22.42,3,51.84C300.88,551.47,339.73,526.89,297.87,499.63Z"/><path class="cls-1" d="M377.1,476.76A16,16,0,0,1,366.62,473a18.85,18.85,0,0,1-6.12-8.22s-40.17-132.72-41.15-135.64c-3.14-9.38-11-21.09-20.42-21.09-17,0-27.68,16.39-30.59,22.47-.74,1.54.44,4.21,1.36,4.21,0-.95,7.83-5.74,10.65-2.15,1.74,2.2,2.5,4.43,2,6.92l-38,125.28a19,19,0,0,1-6.14,8.22,16.53,16.53,0,0,1-10.87,3.75v4.11h43.11v-4.11a9,9,0,0,1-7.12-3.18,8.18,8.18,0,0,1-2-7.3L267,447.93l56.79,0,5.57,18a7.51,7.51,0,0,1-1.77,7.48,9.39,9.39,0,0,1-7.32,3.37v4.11H377.1Zm-105.85-43,24.13-79.28,24.13,79.28Z"/><path class="cls-1" d="M415.45,654v4.27h62.36V654c-2.94,0-8.38-1.52-12.87-4.73-2-1.45-5.51-5.54-7.65-8.12-3.15-3.81-41.86-57.59-41.86-57.59A49.94,49.94,0,0,0,439,570q9.29-9.67,9.29-28.25,0-12.78-4.86-21.49a37.55,37.55,0,0,0-12.82-13.74A54.75,54.75,0,0,0,412,499.39a114.89,114.89,0,0,0-22.34-2.12H328v4.26a12.49,12.49,0,0,1,8.52,3.48,11.47,11.47,0,0,1,3.87,8.9V641.65a10.9,10.9,0,0,1-3.87,8.71,12.9,12.9,0,0,1-8.52,3.29v4.65h57.79v-4.65a12.42,12.42,0,0,1-8.13-3.29,10.87,10.87,0,0,1-3.87-8.71V586.3h5.65L420.87,644c1.3,2.84,1.44,5.22.4,7.16S418.29,654,415.45,654Zm-10.28-91.35c-4.52,4.92-9.74,7.36-15.67,7.36H373.24V513.53H389.5q8.89,0,15.67,7.35T412,541.79Q412,555.34,405.17,562.68Z"/><path class="cls-1" d="M146.19,683.78c-10.8-4.69-21.57-13.14-25.82-28.33,0,0-11.35,7.46-7.93,18.9a19.69,19.69,0,0,0,5.76,9.45c-.43.15-10.27,3.64-10.27,7.52s10.08,8.48,10.29,8.58a20,20,0,0,0-4.86,8.58c-3.42,11.44,7.93,18.9,7.93,18.9,4-14.32,13.8-22.63,24-27.47H462c10.24,0,17.37-8.06,17.37-8.06s-9.4-8.07-17.37-8.07Z"/></svg>