<svg id="Capa_1" data-name="Capa 1" xmlns="http://www.w3.org/2000/svg" viewBox="0 0 600 600"><defs><style>.cls-1{fill:#ff0;}</style></defs><path class="cls-1" d="M345.61,202.08a111.7,111.7,0,1,0,106.05-76.42A111.95,111.95,0,0,0,345.61,202.08Zm106.05-57.54a93,93,0,1,1-88.14,63.52A92.9,92.9,0,0,1,451.66,144.54Z"/><path class="cls-1" d="M481.31,190.63A18.94,18.94,0,1,0,456,182,18.94,18.94,0,0,0,481.31,190.63Z"/><path class="cls-1" d="M405.94,205.94a18.93,18.93,0,1,0-17.63-20.15A18.93,18.93,0,0,0,405.94,205.94Z"/><path class="cls-1" d="M375.92,267.75a18.93,18.93,0,1,0-5.64-26.18A18.94,18.94,0,0,0,375.92,267.75Z"/><path class="cls-1" d="M415,310.09a18.94,18.94,0,1,0,8.1-25.53A18.95,18.95,0,0,0,415,310.09Z"/><circle class="cls-1" cx="497.22" cy="286.6" r="18.93" transform="translate(69.17 668.88) rotate(-71.73)"/><circle class="cls-1" cx="517.2" cy="222.67" r="18.93" transform="translate(-39.98 141.26) rotate(-14.98)"/><path class="cls-1" d="M448.52,246.81a10,10,0,1,0-6.35-12.71A10,10,0,0,0,448.52,246.81Z"/><path class="cls-1" d="M551.24,369.68H211.83v-29a8,8,0,0,0-16,0v29H50.41a21.09,21.09,0,0,0-21.06,21.07v33.68A21.09,21.09,0,0,0,50.41,445.5H195.83v25.79a8,8,0,0,0,16,0V445.5H551.24a21.09,21.09,0,0,0,21.07-21.07V390.75A21.09,21.09,0,0,0,551.24,369.68ZM195.83,429.5H50.41a5.07,5.07,0,0,1-5.06-5.07V390.75a5.07,5.07,0,0,1,5.06-5.07H195.83Zm360.48-5.07a5.08,5.08,0,0,1-5.07,5.07H211.83V385.68H551.24a5.08,5.08,0,0,1,5.07,5.07Z"/><rect class="cls-1" x="57.24" y="391.28" width="24.63" height="24.63" rx="8.77"/><rect class="cls-1" x="95.89" y="391.28" width="24.63" height="24.63" rx="8.77"/><rect class="cls-1" x="134.53" y="391.28" width="24.63" height="24.63" rx="8.77"/><rect class="cls-1" x="167.93" y="391.28" width="24.63" height="24.63" rx="8.77"/><rect class="cls-1" x="216.3" y="391.28" width="24.63" height="24.63" rx="8.77"/><rect class="cls-1" x="250.47" y="391.28" width="24.63" height="24.63" rx="8.77"/><rect class="cls-1" x="289.11" y="391.28" width="24.63" height="24.63" rx="8.77"/><rect class="cls-1" x="327.76" y="391.28" width="24.63" height="24.63" rx="8.77"/><rect class="cls-1" x="366.4" y="391.28" width="24.63" height="24.63" rx="8.77"/><rect class="cls-1" x="405.05" y="391.28" width="24.63" height="24.63" rx="8.77"/><rect class="cls-1" x="443.69" y="391.28" width="24.63" height="24.63" rx="8.77"/><rect class="cls-1" x="482.34" y="391.28" width="24.63" height="24.63" rx="8.77"/><rect class="cls-1" x="520.98" y="391.28" width="24.63" height="24.63" rx="8.77"/><path class="cls-1" d="M202.81,320.74l.85,1.48.85-1.47L233.36,271l.85-1.47h-1.7L175,269.39h-1.7l.85,1.47Zm19.5-44.39-18.63,32.14-18.51-32.21Z"/><path d="M339.91,196.28a111.74,111.74,0,1,0,106-76.42A111.95,111.95,0,0,0,339.91,196.28Zm106-57.54a93,93,0,1,1-88.14,63.52A92.9,92.9,0,0,1,446,138.74Z"/><path d="M475.61,184.82a18.93,18.93,0,1,0-25.34-8.64A18.93,18.93,0,0,0,475.61,184.82Z"/><path d="M400.24,200.14A18.94,18.94,0,1,0,382.61,180,18.94,18.94,0,0,0,400.24,200.14Z"/><path d="M370.22,262a18.94,18.94,0,1,0-5.64-26.18A18.94,18.94,0,0,0,370.22,262Z"/><path d="M409.29,304.28a18.93,18.93,0,1,0,8.09-25.52A18.93,18.93,0,0,0,409.29,304.28Z"/><circle cx="491.52" cy="280.79" r="18.93" transform="translate(70.77 659.48) rotate(-71.73)"/><circle cx="511.5" cy="216.87" r="18.93" transform="translate(-38.68 139.59) rotate(-14.98)"/><path d="M442.82,241a10,10,0,1,0-6.35-12.71A10,10,0,0,0,442.82,241Z"/><path d="M545.54,363.88H206.13v-29a8,8,0,1,0-16,0v29H44.71A21.09,21.09,0,0,0,23.65,385v33.68a21.09,21.09,0,0,0,21.06,21.06H190.13v25.8a8,8,0,0,0,16,0v-25.8H545.54a21.09,21.09,0,0,0,21.07-21.06V385A21.09,21.09,0,0,0,545.54,363.88ZM190.13,423.69H44.71a5.07,5.07,0,0,1-5.06-5.06V385a5.07,5.07,0,0,1,5.06-5.07H190.13Zm360.48-5.06a5.07,5.07,0,0,1-5.07,5.06H206.13V379.88H545.54a5.08,5.08,0,0,1,5.07,5.07Z"/><rect x="51.55" y="385.48" width="24.63" height="24.63" rx="8.77"/><rect x="90.19" y="385.48" width="24.63" height="24.63" rx="8.77"/><rect x="128.83" y="385.48" width="24.63" height="24.63" rx="8.77"/><rect x="162.23" y="385.48" width="24.63" height="24.63" rx="8.77"/><rect x="210.6" y="385.48" width="24.63" height="24.63" rx="8.77"/><rect x="244.77" y="385.48" width="24.63" height="24.63" rx="8.77"/><rect x="283.41" y="385.48" width="24.63" height="24.63" rx="8.77"/><rect x="322.06" y="385.48" width="24.63" height="24.63" rx="8.77"/><rect x="360.7" y="385.48" width="24.63" height="24.63" rx="8.77"/><rect x="399.35" y="385.48" width="24.63" height="24.63" rx="8.77"/><rect x="437.99" y="385.48" width="24.63" height="24.63" rx="8.77"/><rect x="476.64" y="385.48" width="24.63" height="24.63" rx="8.77"/><rect x="515.28" y="385.48" width="24.63" height="24.63" rx="8.77"/><path d="M197.11,314.94l.85,1.47.85-1.47,28.85-49.77.85-1.47h-1.7l-57.52-.11h-1.7l.85,1.47Zm19.5-44.39L198,302.68l-18.51-32.21Z"/></svg>