<svg id="Capa_1" data-name="Capa 1" xmlns="http://www.w3.org/2000/svg" viewBox="0 0 600 600"><defs><style>.cls-1{fill:#ff0;}</style></defs><path class="cls-1" d="M300.83,558.4h.41a5,5,0,0,0,3.45-1.81c.16-.19,15.55-18.91,30.74-37.46,8.92-10.9,16-19.61,21.13-25.89,3-3.74,5.39-6.65,7-8.66l1.63-2.05,3.59-.8c10.72-2.35,19.8-8.42,24.28-16.24a21.84,21.84,0,0,0,2.05-18A24.18,24.18,0,0,0,385.2,435a30,30,0,0,0,7.84-8.8,21.8,21.8,0,0,0,2.06-18,24.17,24.17,0,0,0-9.87-12.41,30.16,30.16,0,0,0,7.81-8.74,21.84,21.84,0,0,0,2.06-18c-2.13-6.54-7.45-11.93-14.9-15.23,3.93-10.82,14.88-26.32,25.5-41.37,3.56-5,7-9.9,10.24-14.59,13.81-20.16,36.95-59.85,36.95-99.25,0-83.85-68.21-152.06-152.06-152.06S148.76,114.76,148.76,198.61c0,39.39,23.15,79.08,37,99.23,3.48,5,7,10,10.24,14.61,13,18.31,26.34,37.25,27.12,47.27v21.57c-6.41,3.1-11.47,7.56-14.46,12.79a21.73,21.73,0,0,0-2.05,18,24.09,24.09,0,0,0,9.84,12.39,30,30,0,0,0-7.79,8.76,21.74,21.74,0,0,0-2.05,18,24.29,24.29,0,0,0,9.91,12.45,30.12,30.12,0,0,0-7.85,8.79,21.76,21.76,0,0,0-2.06,18c3.67,11.23,16.37,18.78,31.6,18.78a35.93,35.93,0,0,0,4.26-.35l55.12,48.24A4.93,4.93,0,0,0,300.83,558.4ZM209.26,303.05c-3.29-4.69-6.71-9.56-10.08-14.44-12.73-18.56-34.11-54.93-34.11-90,0-74.85,60.9-135.74,135.76-135.74s135.75,60.89,135.75,135.74c0,35-21.37,71.43-34.1,90-3.21,4.67-6.47,9.31-10.09,14.45-12.74,18-23.93,33.82-28.2,47.24h-.68a46.17,46.17,0,0,0-10,1.1l-44.64,9.8V336.51l41-12.28a4.89,4.89,0,0,0,.75-.3,8.15,8.15,0,0,0,4.51-8.64v-.07a8.23,8.23,0,0,0-7.05-6.74l-39.17-4.83,62.31-13.51.12,0a8.17,8.17,0,0,0-.74-16l-.28,0L291,266.27l52.55-6.89.2,0a8.15,8.15,0,0,0,.1-16.06l-.18,0-55.45-8,80.11-12.52.25,0a8.17,8.17,0,0,0-.21-16l-.23,0-62.59-8.49a8.15,8.15,0,0,0,3.41-6.74l-.07-13.89s-.18-10.78-8.09-10.78-8.23,10.57-8.23,10.57l0,7.79-31.62,7-.33.09a8.19,8.19,0,0,0-5.91,8.21v.07a8.16,8.16,0,0,0,6.69,7.59l.25,0,53.83,7.23L237,227.57l-.26,0a8.16,8.16,0,0,0,.11,16l.28,0,51,7.3-62.55,8.28-.22,0a8.16,8.16,0,0,0,.31,16.12l.17,0,95,9.48L260,298.11l-.21.05a8.16,8.16,0,0,0,1,16l48.6,6L298,323.09a5.22,5.22,0,0,0-.93.35,8.24,8.24,0,0,0-4.6,7.35v34l-53.14,11.64V359.35c0-.11,0-.22,0-.32C238.41,344.22,224.9,325.14,209.26,303.05Zm13.51,99.12a13.44,13.44,0,0,1,3.75-4,8.09,8.09,0,0,0,6.71,8.77,5.15,5.15,0,0,0,1.4.2,9.29,9.29,0,0,0,1.59-.16l.17,0,24.34-5.34A8.17,8.17,0,0,0,267,392v-.06a8.18,8.18,0,0,0-2.54-4.3l34.18-7.48,6.32-1.39L357,367.34a29,29,0,0,1,6.52-.74,14.3,14.3,0,0,1,2,.21l1.17.17h.06a23,23,0,0,1,5.23,1.17c4.05,1.43,6.91,3.66,7.66,6a5.63,5.63,0,0,1-.7,4.78l0,0c-1.31,2.29-3.95,4.49-7.45,6.19a27.35,27.35,0,0,1-5.34,2c-.37.09-.65.19-.85.25l0,0L245,413.75c-.23,0-.53.05-.88.11a30,30,0,0,1-6,.66,25.05,25.05,0,0,1-8.42-1.55c-4.06-1.44-6.92-3.67-7.68-6A5.82,5.82,0,0,1,222.77,402.17Zm0,39.16a13.66,13.66,0,0,1,3.7-4,8.52,8.52,0,0,0,.19,1.65,8.21,8.21,0,0,0,8,6.39,8.38,8.38,0,0,0,1.72-.18L259.77,440h.07l.92-.22a7.91,7.91,0,0,0,5.89-6v-.05l0-.08a6.89,6.89,0,0,0,.27-3.57l0-.08a8,8,0,0,0-1.75-3.48l13.39-2.93L357,406.48a30.7,30.7,0,0,1,6.52-.71,12.41,12.41,0,0,1,1.93.21l1.22.17h.06a23.73,23.73,0,0,1,5.23,1.18c4,1.42,6.89,3.65,7.64,6a5.78,5.78,0,0,1-.69,4.76l0,.06c-2.19,3.83-7.4,7.06-13.59,8.41l-22.06,4.84-7.8,1.72L249.66,451.9l-5,1.1c-.11,0-.43,0-.67.06s-.8.05-1.29.11h-.08l-.78.12a26,26,0,0,1-3.68.39c-8.86,0-14.92-3.88-16.12-7.54A5.6,5.6,0,0,1,222.78,441.33Zm21.9,50.89a12.92,12.92,0,0,1-1.63.19c-.47,0-1,.07-1.57.14l-1.4.19a14,14,0,0,1-1.92.21c-8.86,0-14.9-3.89-16.1-7.54a5.83,5.83,0,0,1,.71-4.82,14,14,0,0,1,3.71-4,8.54,8.54,0,0,0,.19,1.66,8.2,8.2,0,0,0,8,6.37,8.36,8.36,0,0,0,1.72-.17l4.05-.88,6.45-1.4,13.88-3.05a8.2,8.2,0,0,0,6.23-9.67l0-.05a8,8,0,0,0-1.74-3.49l78.28-17.18,6.91-1.52,6.59-1.43a30.87,30.87,0,0,1,6.53-.72c8.85,0,14.89,3.87,16.08,7.52a5.78,5.78,0,0,1-.72,4.83c-2.19,3.83-7.4,7.05-13.6,8.43l-4.7,1-6.18,1.35L247.31,491.66Zm97.65-4.77C331,501.33,311.52,525,300.21,538.81l-38.88-33.53Z"/><path class="cls-1" d="M302,77.8a8.18,8.18,0,0,0-8.17-8.16,123.11,123.11,0,0,0-123,123,8.16,8.16,0,0,0,16.32,0A106.78,106.78,0,0,1,293.81,86,8.17,8.17,0,0,0,302,77.8Z"/><path class="cls-1" d="M299.88,154.84l.85,1.47.85-1.47,28.85-49.77.85-1.47h-1.69l-57.52-.11h-1.7l.84,1.48Zm19.5-44.4-18.62,32.14-18.52-32.21Z"/><path d="M295.13,552.6l.41,0a5,5,0,0,0,3.45-1.81c.16-.18,15.55-18.9,30.74-37.45,8.92-10.9,16-19.62,21.13-25.9,3-3.73,5.39-6.65,7-8.65.64-.81,1.18-1.48,1.63-2.06l3.59-.79c10.72-2.35,19.8-8.42,24.28-16.24a21.86,21.86,0,0,0,2-18,24.16,24.16,0,0,0-9.9-12.46,30.1,30.1,0,0,0,7.84-8.8,21.81,21.81,0,0,0,2.06-18A24.13,24.13,0,0,0,379.53,390a30.07,30.07,0,0,0,7.81-8.75,21.81,21.81,0,0,0,2.06-18c-2.13-6.55-7.45-11.93-14.9-15.23,3.93-10.82,14.88-26.32,25.5-41.38,3.56-5,7-9.9,10.24-14.59,13.81-20.16,37-59.84,37-99.24C447.2,109,379,40.74,295.13,40.74S143.06,109,143.06,192.81c0,39.39,23.15,79.08,36.95,99.23,3.48,5,7,10,10.24,14.61,12.95,18.31,26.34,37.24,27.12,47.27v21.56c-6.41,3.11-11.47,7.57-14.46,12.8a21.7,21.7,0,0,0-2,18,24.08,24.08,0,0,0,9.84,12.4,29.88,29.88,0,0,0-7.79,8.76,21.74,21.74,0,0,0-2,18,24.29,24.29,0,0,0,9.91,12.45,30,30,0,0,0-7.85,8.78,21.77,21.77,0,0,0-2.06,18c3.67,11.23,16.37,18.79,31.6,18.79a36.35,36.35,0,0,0,4.27-.36l55.11,48.25A5,5,0,0,0,295.13,552.6ZM203.56,297.24c-3.29-4.68-6.71-9.55-10.08-14.44-12.73-18.55-34.11-54.92-34.11-90,0-74.85,60.9-135.75,135.76-135.75S430.88,118,430.88,192.81c0,35-21.37,71.43-34.1,90-3.21,4.67-6.47,9.31-10.09,14.45-12.74,18-23.93,33.82-28.2,47.24l-.68,0a45.63,45.63,0,0,0-10,1.11l-44.64,9.79V330.71l41-12.28a4.89,4.89,0,0,0,.75-.3,8.17,8.17,0,0,0,4.51-8.65v-.06a8.23,8.23,0,0,0-7.05-6.75l-39.17-4.82,62.31-13.51.12,0a8.17,8.17,0,0,0-.74-16,2.4,2.4,0,0,0-.28,0l-79.28-7.82,52.55-6.89.2,0a8.15,8.15,0,0,0,.1-16.06l-.18,0-55.45-8L362.66,217l.25,0a8.16,8.16,0,0,0-.21-16l-.23,0-62.59-8.48a8.17,8.17,0,0,0,3.41-6.75l-.07-13.88S303,161,295.13,161s-8.23,10.57-8.23,10.57l0,7.79-31.62,7-.33.08a8.21,8.21,0,0,0-5.91,8.21v.07a8.17,8.17,0,0,0,6.69,7.6l.25,0,53.83,7.23-78.57,12.24-.26.05a8.16,8.16,0,0,0,.11,16l.28,0,51,7.31-62.55,8.28-.22,0a8.17,8.17,0,0,0,.31,16.13l.17,0,95,9.48-60.84,13.2-.21.05a8.21,8.21,0,0,0-6.1,8.42,8.13,8.13,0,0,0,7.13,7.59l48.6,6-11.32,3a4.42,4.42,0,0,0-.94.35,8.22,8.22,0,0,0-4.6,7.34v34l-53.14,11.65V353.54c0-.1,0-.21,0-.32C232.71,338.42,219.2,319.34,203.56,297.24Zm13.51,99.13a13.44,13.44,0,0,1,3.75-4A8,8,0,0,0,221,395a8.13,8.13,0,0,0,6.55,6.2,5.15,5.15,0,0,0,1.4.2,8.18,8.18,0,0,0,1.59-.17l.17,0L255,395.83a8.18,8.18,0,0,0,6.23-9.67l0-.05a8.18,8.18,0,0,0-2.54-4.3l34.18-7.49,6.32-1.38,52.09-11.41a29.62,29.62,0,0,1,6.52-.73,12.88,12.88,0,0,1,2,.21l1.17.17H361a23.38,23.38,0,0,1,5.23,1.16c4,1.44,6.91,3.67,7.66,6a5.63,5.63,0,0,1-.7,4.78l0,.05c-1.31,2.29-3.95,4.48-7.45,6.18a28.06,28.06,0,0,1-5.34,2c-.37.09-.65.19-.85.25h0L239.31,408a5.56,5.56,0,0,0-.87.11,30.12,30.12,0,0,1-6,.66,24.83,24.83,0,0,1-8.42-1.56c-4.06-1.43-6.92-3.66-7.68-6A5.81,5.81,0,0,1,217.07,396.37Zm0,39.15a13.78,13.78,0,0,1,3.7-4,8.43,8.43,0,0,0,.19,1.65,8.21,8.21,0,0,0,8,6.39,8.38,8.38,0,0,0,1.72-.18l23.42-5.11.07,0,.92-.21a7.92,7.92,0,0,0,5.89-6V428l0-.08a6.91,6.91,0,0,0,.27-3.57l0-.08a8.06,8.06,0,0,0-1.75-3.49l13.39-2.93,78.41-17.17a30.07,30.07,0,0,1,6.52-.71,13.61,13.61,0,0,1,1.93.2l1.22.17H361a23.72,23.72,0,0,1,5.23,1.17c4,1.43,6.89,3.66,7.64,6a5.75,5.75,0,0,1-.69,4.75l0,.06c-2.19,3.84-7.39,7.07-13.59,8.42l-22.06,4.84-7.8,1.71L244,446.1l-5,1.09a4.7,4.7,0,0,1-.67.06c-.36,0-.8.05-1.29.12h-.08l-.78.11a24.67,24.67,0,0,1-3.68.4c-8.86,0-14.92-3.89-16.11-7.55C216.17,439.79,215.62,438.09,217.08,435.52Zm21.9,50.9a13.19,13.19,0,0,1-1.63.18c-.47,0-1,.08-1.57.15l-1.4.19a14,14,0,0,1-1.92.21c-8.86,0-14.9-3.89-16.1-7.55a5.85,5.85,0,0,1,.71-4.81,14,14,0,0,1,3.71-4,8.43,8.43,0,0,0,.19,1.65,8.21,8.21,0,0,0,8,6.38,8.36,8.36,0,0,0,1.72-.17l4-.89,6.45-1.39L255,473.28a8.2,8.2,0,0,0,6.23-9.67l0-.06a8.1,8.1,0,0,0-1.74-3.49l78.28-17.17,6.91-1.52,6.59-1.43a30.87,30.87,0,0,1,6.53-.72c8.85,0,14.89,3.87,16.08,7.52a5.79,5.79,0,0,1-.71,4.82c-2.2,3.83-7.41,7.06-13.61,8.43l-4.7,1-6.18,1.34L241.61,485.85Zm97.65-4.78c-11.36,13.88-30.81,37.59-42.11,51.37l-38.89-33.53Z"/><path d="M296.28,72a8.19,8.19,0,0,0-8.17-8.17,123.11,123.11,0,0,0-123,123,8.16,8.16,0,0,0,16.31,0A106.78,106.78,0,0,1,288.11,80.14,8.17,8.17,0,0,0,296.28,72Z"/><path d="M294.18,149l.85,1.47.85-1.46,28.85-49.78.86-1.46h-1.7l-57.52-.11h-1.7l.84,1.47Zm19.5-44.39-18.62,32.13-18.52-32.2Z"/></svg>