<svg id="Capa_1" data-name="Capa 1" xmlns="http://www.w3.org/2000/svg" viewBox="0 0 600 600"><defs><style>.cls-1{fill:#ff0;}</style></defs><path class="cls-1" d="M358.5,212.77l1.66-.49-1.26-1.2L316.35,170.7l-1.26-1.19-.4,1.69-13.7,57-.4,1.69,1.66-.5Zm-39.43-29.83L346.55,209l-36.32,10.76Z"/><path class="cls-1" d="M138.4,381.5l-.85-1.48-.85,1.47-28.85,49.77-.85,1.47h1.7l57.52.1h1.7l-.85-1.47Zm-19.5,44.39,18.63-32.14L156,426Z"/><path class="cls-1" d="M138.4,437l-.85-1.47L136.7,437l-28.85,49.77-.85,1.47h1.7l57.52.11h1.7l-.85-1.47ZM118.9,481.4l18.63-32.14L156,481.47Z"/><path class="cls-1" d="M337.54,300.09l1.66-.49L338,298.41,295.39,258l-1.26-1.2-.4,1.69-13.69,57-.41,1.69,1.66-.49Zm-39.43-29.83,27.48,26.07-36.32,10.76Z"/><path class="cls-1" d="M275.23,342,274,340.83l-.4,1.68-13.69,57.05-.41,1.68,1.66-.49,56.25-16.66,1.66-.5-1.25-1.19Zm-6.12,49.07L278,354.25l27.48,26.08Z"/><path class="cls-1" d="M503.64,169.15,315.07,123.89a26.46,26.46,0,0,0-6.19-.74,26.39,26.39,0,0,0-25.57,20.21L220.74,404a26.35,26.35,0,0,0,19.47,31.76l188.57,45.26a26.65,26.65,0,0,0,6.15.73,26.28,26.28,0,0,0,25.62-20.2l62.56-260.68a26.33,26.33,0,0,0-19.47-31.76Zm2,27.56L443,457.39a8.31,8.31,0,0,1-8.11,6.4,8.59,8.59,0,0,1-1.95-.23L244.41,418.3a8.35,8.35,0,0,1-6.17-10.06l62.57-260.68a8.34,8.34,0,0,1,8.09-6.4,8.83,8.83,0,0,1,2,.23l188.57,45.26a8.35,8.35,0,0,1,6.17,10.06Z"/><path class="cls-1" d="M476.48,231.09l-94.41-23a9,9,0,1,0-4.21,17.5l94.4,23a9,9,0,0,0,10.87-6.65,9,9,0,0,0-6.65-10.85Z"/><path class="cls-1" d="M455.52,318.41l-94.41-23a9.5,9.5,0,0,0-2.11-.25,9,9,0,0,0-2.1,17.75l94.4,23a9.09,9.09,0,0,0,2.12.25,9,9,0,0,0,2.1-17.75Z"/><path class="cls-1" d="M435.36,402.41l-94.41-23a9,9,0,1,0-4.21,17.5l94.4,23a9.09,9.09,0,0,0,2.12.25,9,9,0,0,0,2.1-17.75Z"/><path class="cls-1" d="M114.86,248.14h45.2a7,7,0,0,0,0-14h-45.2a7,7,0,0,0,0,14Z"/><path class="cls-1" d="M114.86,269.93h45.2a7,7,0,0,0,0-14h-45.2a7,7,0,0,0,0,14Z"/><path class="cls-1" d="M190,71c-7.06,0-9.79,7-11.38,13-2,7.63-3.43,19.15-5.37,35.86-2,16.91-4.19,36.08-7.79,50.65-5,20.14-9.94,20.37-10,20.37H119.08c-1.33,0-6-1.57-10.2-21.85-2.85-13.68-4.5-30.8-5.83-44.56-1.66-17.21-3-30.06-5.24-38.71C96.18,79.38,93.06,71,84.8,71a7,7,0,0,0-7,7V492.61A41.44,41.44,0,0,0,119.2,534h36.44A41.44,41.44,0,0,0,197,492.61V78A7,7,0,0,0,190,71Zm-7,421.66A27.43,27.43,0,0,1,155.64,520H119.2a27.43,27.43,0,0,1-27.4-27.39V151.21a210.5,210.5,0,0,0,4.9,27.32c4.72,17.71,12,26.32,22.38,26.32h36.44c10.19,0,17.64-9.06,22.76-27.69a216,216,0,0,0,4.76-23.4Z"/><path class="cls-1" d="M115.34,178.41c0,.08,0,.17,0,.25a7.35,7.35,0,0,0,7.33,6.65l.62,0,3.31-.26a7.36,7.36,0,0,0,6.77-7.93l-4.57-95.63c0-.08,0-.17,0-.25a7.38,7.38,0,0,0-7.33-6.65q-.32,0-.63,0l-3.31.26a7.36,7.36,0,0,0-6.76,7.93Z"/><path class="cls-1" d="M148.22,185l3.34.26a5.68,5.68,0,0,0,.59,0,7.38,7.38,0,0,0,7.33-6.66c0-.08,0-.16,0-.23l4.82-95.67a7.38,7.38,0,0,0-6.78-7.9l-3.34-.27-.58,0a7.38,7.38,0,0,0-7.34,6.66c0,.08,0,.16,0,.23l-4.82,95.67a7.36,7.36,0,0,0,6.77,7.9Z"/><path d="M352.8,207l1.66-.49-1.25-1.19L310.65,164.9l-1.26-1.19-.4,1.68L295.3,222.44l-.41,1.68,1.66-.49Zm-39.43-29.83,27.48,26.08L304.53,214Z"/><path d="M132.7,375.69l-.85-1.47-.85,1.47-28.85,49.77-.85,1.47H103l57.52.11h1.7l-.85-1.47Zm-19.5,44.4L131.83,388l18.51,32.21Z"/><path d="M132.7,431.2l-.85-1.47L131,431.2,102.15,481l-.85,1.47H103l57.52.11h1.7l-.85-1.48Zm-19.5,44.4,18.63-32.14,18.51,32.21Z"/><path d="M331.84,294.29l1.66-.5-1.25-1.19-42.56-40.38L288.43,251l-.4,1.68-13.69,57-.41,1.68,1.66-.49Zm-39.43-29.84,27.48,26.08-36.32,10.76Z"/><path d="M269.53,336.22,268.27,335l-.4,1.68-13.69,57.05-.41,1.68,1.66-.49,56.25-16.67,1.66-.49-1.25-1.19Zm-6.12,49.06,8.84-36.83,27.48,26.07Z"/><path d="M497.94,163.35,309.37,118.09a26.18,26.18,0,0,0-19.91,3.15,26.17,26.17,0,0,0-11.85,16.31L215,398.23A26.35,26.35,0,0,0,234.51,430l188.57,45.26a26.65,26.65,0,0,0,6.15.73,26.28,26.28,0,0,0,25.62-20.2l62.56-260.68a26.33,26.33,0,0,0-19.47-31.76Zm2,27.56L437.34,451.59a8.32,8.32,0,0,1-8.11,6.4,8.07,8.07,0,0,1-2-.24L238.71,412.49a8.34,8.34,0,0,1-6.17-10.06l62.57-260.67a8.3,8.3,0,0,1,10.06-6.17l188.57,45.26a8.34,8.34,0,0,1,6.17,10.06Z"/><path d="M470.78,225.29l-94.41-23a9,9,0,1,0-4.21,17.5l94.4,23a9,9,0,0,0,10.87-6.65,9,9,0,0,0-6.65-10.85Z"/><path d="M449.82,312.61l-94.41-23a9,9,0,1,0-4.21,17.5l94.4,23a9.09,9.09,0,0,0,2.12.25,9,9,0,0,0,2.1-17.75Z"/><path d="M429.66,396.6l-94.41-23a9,9,0,1,0-4.21,17.5l94.4,23a9.11,9.11,0,0,0,2.12.26,9,9,0,0,0,2.1-17.76Z"/><path d="M109.16,242.34h45.2a7,7,0,0,0,0-14h-45.2a7,7,0,0,0,0,14Z"/><path d="M109.16,264.13h45.2a7,7,0,0,0,0-14h-45.2a7,7,0,1,0,0,14Z"/><path d="M184.34,65.14c-7.06,0-9.79,7-11.38,13-2,7.63-3.43,19.16-5.37,35.86-2,16.92-4.19,36.09-7.79,50.66-5,20.14-9.93,20.37-10,20.37H113.38c-1.33,0-6-1.58-10.2-21.85-2.85-13.68-4.5-30.81-5.83-44.57-1.66-17.2-3-30-5.24-38.7-1.63-6.35-4.75-14.79-13-14.79a7,7,0,0,0-7,7V486.8a41.44,41.44,0,0,0,41.4,41.4h36.44a41.44,41.44,0,0,0,41.4-41.4V72.14A7,7,0,0,0,184.34,65.14Zm-7,421.66a27.43,27.43,0,0,1-27.4,27.4H113.5a27.43,27.43,0,0,1-27.4-27.4V145.4A209.89,209.89,0,0,0,91,172.72c4.73,17.72,12,26.33,22.38,26.33h36.44c10.19,0,17.64-9.06,22.76-27.69a216,216,0,0,0,4.76-23.4Z"/><path d="M109.64,172.6c0,.09,0,.17,0,.26a7.35,7.35,0,0,0,7.33,6.65l.62,0,3.31-.26a7.38,7.38,0,0,0,6.77-7.94l-4.57-95.62c0-.09,0-.17,0-.25a7.36,7.36,0,0,0-7.33-6.65l-.63,0-3.3.27A7.36,7.36,0,0,0,105.08,77Z"/><path d="M142.52,179.22l3.34.26a5.72,5.72,0,0,0,.59,0,7.36,7.36,0,0,0,7.33-6.66c0-.07,0-.15,0-.23L158.62,77A7.4,7.4,0,0,0,151.85,69l-3.35-.26-.58,0a7.38,7.38,0,0,0-7.34,6.66c0,.08,0,.15,0,.23l-4.82,95.66a7.25,7.25,0,0,0,1.74,5.34A7.36,7.36,0,0,0,142.52,179.22Z"/></svg>