<svg id="Capa_1" data-name="Capa 1" xmlns="http://www.w3.org/2000/svg" viewBox="0 0 600 600"><defs><style>.cls-1{fill:#ff0;}</style></defs><path class="cls-1" d="M448.53,228.79,444,287.27,463.47,278l13,26.41a3.5,3.5,0,0,0,3.15,2,3.58,3.58,0,0,0,1.54-.36l8.95-4.39a3.51,3.51,0,0,0,1.6-4.69L478.8,270.64,496.89,262ZM449.61,279l3.23-41.22,34.08,23.41Z"/><path class="cls-1" d="M554.81,115.82c-6-18.3-19.66-27.59-40.5-27.59-.75,0-1.53,0-2.3,0-8.38.26-59.42.39-151.72.39-75.3,0-160.81-.09-217.39-.14h-6.75l-48.57,0H84.39c-23.43,0-38,14.69-38,38.27q0,84,0,167.9v65.7a9,9,0,0,0,9,9H541c1.28,0,2.55,0,3.78-.05l1.65,0a9,9,0,0,0,8.84-9V118.64A9,9,0,0,0,554.81,115.82ZM537.27,351.33H64.39v-56.7q0-83.94,0-167.89c0-13.44,6.74-20.26,20-20.28H87.3l54.77,0h2c56.32,0,141.43.13,216,.13,92.69,0,144-.13,152.56-.39l1.84,0c12.68,0,19.16,3.93,22.87,13.94Z"/><path class="cls-1" d="M546.2,378h-.53l-2.22.15c-1.41.1-2.73.19-3.93.19q-202.09,0-404.2,0H55.46a9,9,0,0,0-9,9c0,5.08,0,10,.07,14.76v.19c0,4.66.07,9.06.07,13.54,0,10.29,5.12,19.4,14.41,25.65A45.15,45.15,0,0,0,85.19,449c94.26-.07,188.17-.08,275.62-.08H516.15c12.51,0,22.2-3,28.82-8.91,6.78-6.06,10.22-15,10.22-26.51V387a9.09,9.09,0,0,0-2.81-6.54A9,9,0,0,0,546.2,378Zm-9,35.49c0,8.82-1.63,17.42-21,17.42H357.44c-81.6,0-177.75,0-272.23.08a27.28,27.28,0,0,1-14.16-4.42c-4.28-2.88-6.45-6.49-6.45-10.71,0-4.61,0-9.26-.07-13.77V402c0-1.87,0-3.75,0-5.65H191.68q172.76,0,345.51,0Z"/><path class="cls-1" d="M356.18,458.19H245.47a29.26,29.26,0,1,0,0,58.52H356.18a29.26,29.26,0,0,0,0-58.52Zm0,40.52H245.47a11.26,11.26,0,1,1,0-22.52H356.18a11.26,11.26,0,0,1,0,22.52Z"/><path class="cls-1" d="M495.75,262.58l1.57-.72-1.42-1-48-33.74-1.42-1-.15,1.73-5.23,58.43L441,288l1.57-.73Zm-43.37-23.76,31,21.79L449,276.55Z"/><path d="M442.83,223l-4.58,58.49,19.52-9.32,13,26.41a3.5,3.5,0,0,0,3.15,2,3.58,3.58,0,0,0,1.54-.36l8.95-4.4a3.49,3.49,0,0,0,1.6-4.68L473.1,264.83l18.09-8.64Zm1.08,50.25L447.14,232l34.08,23.4Z"/><path d="M549.11,110c-6-18.31-19.66-27.59-40.5-27.59-.75,0-1.53,0-2.3,0-8.38.25-59.42.38-151.71.38-75.31,0-160.82-.08-217.4-.14h-6.75c-23.38,0-40.7,0-48.56,0h-3.2c-23.43,0-38,14.69-38,38.27V354.53a9,9,0,0,0,9,9H535.3c1.28,0,2.55,0,3.79-.06l1.64,0a9,9,0,0,0,8.84-9V112.84A9,9,0,0,0,549.11,110ZM531.57,345.53H58.69V120.94c0-13.44,6.74-20.26,20-20.27H81.6l54.77,0h1.95c56.32.06,141.44.14,216,.14,92.69,0,144-.13,152.56-.39l1.84,0c12.68,0,19.16,3.92,22.87,13.93Z"/><path d="M540.5,372.21H540l-2.22.15c-1.41.1-2.73.19-3.93.19H49.76a9,9,0,0,0-9,9c0,5.09,0,10,.07,14.76v.2c0,4.66.07,9.06.07,13.53,0,10.29,5.12,19.4,14.41,25.65a45.08,45.08,0,0,0,24.18,7.49c94.26-.08,188.17-.09,275.62-.09H510.45c12.51,0,22.2-3,28.82-8.91,6.78-6.06,10.22-15,10.22-26.51V381.21a9.06,9.06,0,0,0-2.81-6.54A9,9,0,0,0,540.5,372.21Zm-9,35.49c0,8.81-1.63,17.42-21,17.42H351.74c-81.6,0-177.75,0-272.23.09a27.28,27.28,0,0,1-14.16-4.42c-4.28-2.89-6.45-6.49-6.45-10.72,0-4.6,0-9.26-.07-13.76v-.07c0-1.87,0-3.75,0-5.66H186l345.51,0Z"/><path d="M350.48,452.39H239.78a29.26,29.26,0,1,0,0,58.52h110.7a29.26,29.26,0,0,0,0-58.52Zm0,40.52H239.78a11.26,11.26,0,1,1,0-22.52h110.7a11.26,11.26,0,0,1,0,22.52Z"/><path d="M490.05,256.78l1.57-.73-1.42-1-48-33.74-1.42-1-.15,1.73-5.22,58.43-.16,1.72,1.57-.72ZM446.68,233l31,21.79-34.36,15.94Z"/></svg>